<svg version="1.1" id="Layer_1" xmlns="http://www.w3.org/2000/svg" xmlns:xlink="http://www.w3.org/1999/xlink" x="0px" y="0px"
	 width="100%" viewBox="0 0 480 1024" enable-background="new 0 0 480 1024" xml:space="preserve">
<path fill="#000000" opacity="1.000000" stroke="none" 
	d="
M481.000000,697.531372 
	C479.288483,691.732117 477.966919,685.388428 477.932831,678.865845 
	C477.850067,663.034180 477.879791,647.201965 477.783539,631.370483 
	C477.772308,629.518433 478.824585,626.970703 476.325500,626.084656 
	C474.470276,625.426941 472.498444,626.077881 470.775024,627.484253 
	C467.293182,630.325623 463.797302,631.087341 460.247223,627.255981 
	C458.451691,625.318176 455.774261,624.972107 453.248932,625.353149 
	C448.916382,626.006958 445.883972,623.608276 444.104858,620.499268 
	C441.380157,615.737793 437.642212,612.166138 433.562683,608.757446 
	C432.685852,608.024780 431.355499,607.131775 431.293091,606.238586 
	C430.791138,599.058105 425.358551,593.139099 426.008179,585.767090 
	C426.316956,582.263367 423.837799,579.914246 423.126617,576.883240 
	C421.745300,570.995789 421.573395,565.000183 421.687469,558.999023 
	C421.761505,555.104919 421.430481,551.424622 419.278992,547.970154 
	C417.632538,545.326538 417.876282,542.201294 418.093445,539.190552 
	C418.237091,537.198547 418.515533,535.213013 418.583618,533.219421 
	C418.955383,522.327271 417.536163,519.008972 408.985504,510.916229 
	C407.619354,514.737122 408.509583,518.497314 408.380707,522.159241 
	C408.240082,526.154297 408.149780,530.165161 408.342041,534.154419 
	C408.570190,538.888672 406.289551,540.885315 401.810059,540.905945 
	C391.478729,540.953674 381.147461,541.010254 370.816071,541.037170 
	C368.541351,541.043091 365.862427,541.091858 366.248627,544.136536 
	C367.591675,554.723450 362.811310,564.307373 361.660370,574.470276 
	C360.858887,581.547546 362.449890,588.798828 359.799133,595.568054 
	C361.487549,597.412354 363.432922,596.761292 365.163605,596.769653 
	C374.829102,596.816589 384.495239,596.729919 394.160858,596.765076 
	C401.729492,596.792603 404.044525,598.977661 404.129242,606.594604 
	C404.246002,617.089783 404.207184,627.588745 404.068146,638.083862 
	C403.981384,644.632812 401.562378,647.014282 394.799225,647.093201 
	C382.969513,647.231262 371.136902,647.195129 359.306000,647.135498 
	C353.396973,647.105713 350.708679,649.164246 349.248199,655.036316 
	C346.908020,664.445251 344.062439,673.698120 341.199249,682.960205 
	C339.325806,689.020508 336.020996,694.868835 336.040405,701.543945 
	C336.052460,705.692017 332.256836,708.413879 331.826843,712.608337 
	C330.649658,724.091431 331.342773,735.561401 331.268188,747.044250 
	C331.186310,759.658997 336.821899,771.328064 336.424225,783.927246 
	C336.301331,787.821045 339.231079,788.871521 342.646515,788.635864 
	C356.969086,787.647583 371.282562,788.946899 385.601013,788.777100 
	C394.435059,788.672363 395.430359,790.578491 395.746613,799.283447 
	C396.151428,810.427856 394.837799,821.556641 395.924194,832.665771 
	C396.239777,835.892944 395.213531,838.115479 392.254150,839.564453 
	C388.901184,841.205933 385.476257,842.140381 381.687256,842.059448 
	C366.542542,841.735779 351.368866,843.022461 336.250092,841.227661 
	C333.714539,840.926697 332.660248,842.239807 331.362030,844.389282 
	C327.731232,850.401001 328.414581,857.991943 323.881195,863.657654 
	C323.011963,864.744080 323.342194,866.869446 323.300323,868.520142 
	C323.236328,871.042603 322.852539,873.445801 321.938568,875.833984 
	C318.839447,883.931885 316.383270,892.209778 314.072540,900.587097 
	C312.268768,907.126282 311.349945,914.129456 307.783234,920.169312 
	C306.846161,921.756042 305.778076,923.443848 306.983582,925.279175 
	C308.190399,927.116577 310.026917,926.039062 311.586273,925.878967 
	C331.695892,923.814575 351.823425,924.556335 371.940552,925.598267 
	C376.687714,925.844116 379.136566,929.296997 378.786377,934.144958 
	C378.139954,943.093811 378.393585,952.035217 379.058899,960.968994 
	C379.394531,965.476013 376.785828,968.774414 372.238220,968.987183 
	C359.932556,969.562805 347.628082,970.390198 335.304352,969.087036 
	C331.976471,968.735107 328.979095,967.404419 324.592072,965.753723 
	C326.942322,968.665771 327.372803,970.907043 327.791992,973.130554 
	C328.997314,979.524292 326.831207,981.828125 320.665710,983.816711 
	C304.261505,989.107605 287.473541,986.896179 270.804871,987.141113 
	C267.940247,987.183228 265.142303,986.668030 262.806305,984.790466 
	C256.912354,980.053040 251.044449,982.044678 245.375687,985.100830 
	C243.367157,986.183655 241.484070,986.792175 239.253235,986.710632 
	C225.442200,986.205933 211.631332,985.685669 197.817139,985.283081 
	C191.668259,985.103760 186.242920,984.001831 182.035294,978.683105 
	C178.632980,974.382385 179.584503,969.430542 184.753876,967.154907 
	C189.777206,964.943604 194.859894,962.801880 198.387436,958.057678 
	C200.106583,955.745728 200.992828,953.607056 200.902832,950.793518 
	C200.764420,946.465393 200.959778,942.127258 200.847565,937.797668 
	C200.731216,933.308960 200.652466,928.992615 206.105499,927.260864 
	C207.342133,926.868103 207.563141,925.693970 207.247101,924.344360 
	C205.194366,915.578857 202.561661,907.171265 198.409973,898.988037 
	C195.939896,894.119263 194.193878,888.363159 192.274734,883.006348 
	C189.709534,875.846313 188.622055,868.286316 185.611206,861.315002 
	C185.281906,860.552490 184.580048,859.786499 184.620941,859.053894 
	C185.031952,851.687500 181.328827,845.090759 178.988373,838.788147 
	C173.576767,824.215393 175.744873,809.546936 175.001175,794.905457 
	C174.804214,791.027771 175.462189,787.251038 177.708267,783.940369 
	C178.598755,782.627808 178.725632,781.158264 178.906982,779.667236 
	C179.487381,774.895264 179.616547,770.022278 182.827515,765.955505 
	C183.881027,764.621216 183.756760,762.784424 183.723114,761.114014 
	C183.641647,757.069763 184.077530,752.982117 185.515274,749.307617 
	C189.386032,739.414856 189.101929,728.969299 187.179733,719.257141 
	C185.842804,712.502075 184.576813,705.249329 181.127792,698.645752 
	C178.546661,693.703796 178.762115,687.318665 175.599579,682.335327 
	C172.294647,677.127563 171.311981,670.975159 168.362961,665.630005 
	C165.882263,661.133606 165.478043,655.819580 164.102737,651.021912 
	C162.174622,644.295654 159.016449,637.719604 158.625793,630.535828 
	C157.832626,615.950623 155.151932,601.575439 153.806396,587.053528 
	C153.554794,584.338074 152.350128,583.203796 149.705185,583.209290 
	C132.206924,583.245544 114.708611,583.246582 97.210312,583.267029 
	C95.653664,583.268860 93.815834,583.445801 93.649597,585.257996 
	C93.298058,589.090149 90.679222,591.939575 89.673683,595.389954 
	C88.238586,600.314148 84.707466,602.611023 80.327339,604.045044 
	C78.878883,604.519287 76.956917,604.535339 76.894859,606.313232 
	C76.740944,610.722290 72.410072,612.779785 71.427254,616.687622 
	C71.208992,617.555481 70.359322,618.515564 69.543655,618.940918 
	C64.553467,621.543884 59.046467,622.881531 53.846355,625.011536 
	C49.528046,626.780334 47.167973,621.058899 43.180763,619.786072 
	C35.387474,617.298096 33.448421,611.135742 34.512367,603.514404 
	C35.045654,599.694336 34.639099,595.986328 32.738712,592.374573 
	C31.020279,589.108582 30.857716,585.366943 30.932848,581.644592 
	C31.035833,576.542297 31.574926,571.402832 30.363091,565.722229 
	C27.893208,568.042969 25.860886,570.101379 23.673479,571.979065 
	C17.944357,576.897156 10.682771,574.436096 9.268736,567.076111 
	C8.413383,562.624084 8.794216,558.341431 12.507122,555.149475 
	C17.959494,550.462158 18.286068,543.108154 21.939693,537.440613 
	C26.543962,530.298462 32.790237,524.980164 39.794235,520.701172 
	C47.477512,516.007263 52.965946,510.030701 57.140621,501.944031 
	C59.811481,496.770386 59.766510,490.524719 63.984921,486.124023 
	C64.391403,485.699982 64.618065,484.858521 64.545227,484.257202 
	C63.592411,476.390656 69.500610,470.769073 71.163651,463.834991 
	C73.237724,455.187164 77.667252,447.148773 77.816505,438.015717 
	C77.881676,434.027435 77.732529,430.027893 80.552551,426.615906 
	C81.316460,425.691650 81.755760,423.998535 81.516457,422.827393 
	C80.025093,415.528534 84.146484,409.419373 86.716118,403.553253 
	C91.019821,393.728424 96.363152,384.269653 102.941490,375.479156 
	C109.981476,366.071716 113.176941,355.004639 111.660278,342.884155 
	C110.665703,334.935974 109.926971,326.284729 112.325165,319.122864 
	C114.863083,311.543762 114.931648,303.916687 116.761002,296.466003 
	C117.220482,294.594604 117.126099,292.993530 116.866447,291.153076 
	C114.808670,276.567841 114.281487,261.715698 116.550987,247.346710 
	C118.357071,235.911789 122.615509,224.385559 132.229828,216.319122 
	C139.182266,210.486008 147.300568,206.369156 154.813141,201.371292 
	C160.285522,197.730728 166.984299,197.449814 172.290131,193.757477 
	C172.817627,193.390366 173.570923,193.016006 174.149521,193.104111 
	C181.983154,194.297073 188.598297,189.914566 195.629211,187.969070 
	C207.777298,184.607559 218.465240,178.101288 224.823761,166.551956 
	C226.944366,162.700195 227.082703,157.489349 225.109390,153.974808 
	C221.912766,148.281494 222.651291,141.353668 218.386917,136.072159 
	C217.165634,134.559570 216.346893,132.697632 214.831024,131.103592 
	C207.550781,123.447906 203.600204,114.421547 205.090836,103.578873 
	C205.203033,102.762764 205.261063,101.681679 205.783157,101.219337 
	C210.937927,96.654335 210.001343,90.598038 209.511414,84.906593 
	C209.019196,79.188446 212.501511,75.035248 214.717026,70.627892 
	C217.650589,64.792023 220.438568,58.479988 226.872787,55.027725 
	C235.517181,50.389603 243.633499,44.410133 253.856033,43.846912 
	C261.000702,43.453270 268.201874,44.073467 275.345062,43.666317 
	C283.810760,43.183788 290.537842,46.777905 297.484009,50.957058 
	C302.707886,54.100006 307.880768,56.917252 312.331421,61.305283 
	C315.357697,64.288986 314.397827,68.921761 318.139404,71.461807 
	C319.870575,72.637039 321.072662,73.526039 323.265015,73.470070 
	C333.901062,73.198524 344.543152,73.037949 355.182434,73.069160 
	C360.828827,73.085732 362.154083,75.162857 361.958099,81.037758 
	C361.611206,91.436951 361.447113,101.847931 361.498596,112.252533 
	C361.528046,118.204498 360.363373,119.864868 354.553711,119.836563 
	C346.580231,119.797714 338.606232,119.657661 330.634827,119.463432 
	C324.964478,119.325256 320.489777,122.654503 319.280060,128.352905 
	C318.818237,130.528214 318.447113,132.865601 316.633881,134.118561 
	C311.219788,137.859756 309.676331,144.080963 307.021973,149.392426 
	C304.815826,153.806961 306.746704,159.265381 306.153717,164.200317 
	C305.464874,169.932724 309.195374,172.744904 312.362885,176.719971 
	C320.610260,187.069962 333.425903,189.369949 343.543671,196.255096 
	C344.170990,196.681961 345.142548,196.687576 345.962646,196.733521 
	C355.851227,197.287796 364.849518,200.840500 373.803162,204.711868 
	C377.581268,206.345413 381.796448,206.723343 385.464020,208.946579 
	C393.499786,213.817841 400.053650,219.955231 404.559326,228.332169 
	C406.176422,231.338654 408.269714,234.009842 409.572235,237.303909 
	C410.713684,240.190765 414.289398,239.322342 416.788849,239.341019 
	C427.280792,239.419449 437.774902,239.187851 448.268402,239.092392 
	C452.934326,239.049942 457.602844,238.966049 462.266418,239.070053 
	C469.306976,239.227081 471.785187,241.352097 471.987915,248.222382 
	C472.268036,257.713318 472.256866,267.221436 472.047974,276.715088 
	C471.916595,282.686401 468.713745,285.335510 462.133179,285.342255 
	C447.802246,285.356934 433.467621,285.412140 419.142212,285.098480 
	C414.655060,285.000214 412.710632,286.191254 412.955261,290.901978 
	C413.240051,296.386383 412.965271,301.897644 413.044006,307.395691 
	C413.102997,311.517059 413.414124,315.321960 415.793152,319.246704 
	C418.498383,323.709656 417.396576,329.334747 416.591949,334.428345 
	C416.018829,338.056366 415.254761,341.453735 416.686279,345.149963 
	C417.413513,347.027649 417.123535,349.476837 416.751678,351.571472 
	C415.286621,359.823639 418.233429,366.623596 422.935699,373.151459 
	C428.644623,381.076813 432.599274,389.662781 434.685669,399.483856 
	C435.962402,405.493530 437.398132,412.046570 441.359924,417.367981 
	C442.679840,419.140869 444.175415,420.025391 446.390472,419.978699 
	C455.369232,419.789429 464.349304,419.589111 473.329285,419.570709 
	C476.581207,419.564056 477.788025,418.139984 477.795654,415.048218 
	C477.814209,407.549805 478.133301,400.048462 478.000610,392.554169 
	C477.752319,378.531555 479.501862,364.650391 480.805969,350.361084 
	C481.000000,376.354218 481.000000,402.708466 480.532104,429.560974 
	C460.447510,430.090240 440.830872,430.116974 421.214203,430.154175 
	C412.224426,430.171234 403.234528,430.185303 394.245117,430.256409 
	C392.342590,430.271454 389.668976,429.777283 389.959503,432.887207 
	C390.480103,438.460297 389.383972,443.745117 388.317017,449.158264 
	C387.228912,454.678589 390.278809,457.427338 395.861298,457.229340 
	C401.515686,457.028778 407.188293,456.802917 412.833191,457.046570 
	C417.250977,457.237213 420.122040,455.523254 422.096954,451.735657 
	C423.062775,449.883301 423.726593,447.297882 426.485199,447.640106 
	C429.382202,447.999481 431.720978,449.457703 433.125336,452.299164 
	C435.491394,457.086273 440.661102,459.820526 446.192993,459.167206 
	C457.758636,457.801300 469.298187,456.135254 481.000000,457.000000 
	C481.000000,489.020905 481.000000,521.041809 480.610291,553.395508 
	C479.400208,553.608887 478.580078,553.387085 477.759399,553.385193 
	C464.456757,553.354919 451.153564,553.413086 437.851776,553.301025 
	C434.523926,553.272949 434.028687,555.053711 434.066437,557.732849 
	C434.167358,564.890259 434.289795,572.051147 434.162445,579.206360 
	C434.101379,582.635925 435.336639,583.961670 438.815063,583.887268 
	C446.300934,583.726868 453.793396,583.823914 461.282501,583.889221 
	C464.022125,583.913086 466.134155,583.466614 466.772095,580.193909 
	C467.340729,577.276733 469.516571,575.463318 472.414581,575.392090 
	C475.284607,575.321594 477.374420,577.148621 478.638885,579.711365 
	C479.363556,581.180054 479.501556,582.958374 481.000000,584.000000 
	C481.000000,621.687561 481.000000,659.375122 481.000000,697.531372 
M193.255783,495.614197 
	C207.881866,494.026581 222.563217,494.747314 237.203552,494.928192 
	C273.182678,495.372650 309.178406,493.728241 345.141937,495.777954 
	C348.171631,495.950623 350.532501,495.078156 349.245758,491.613861 
	C346.599670,484.489929 346.311981,476.994110 345.034515,469.647064 
	C343.765656,462.349915 340.707794,460.145813 333.274200,460.148865 
	C300.110565,460.162628 266.946930,460.172852 233.783295,460.158752 
	C226.948624,460.155853 225.975494,459.133636 226.051178,452.336182 
	C226.166061,442.019073 226.805450,431.676605 226.283203,421.392578 
	C225.788269,411.646362 226.945267,409.760406 236.649002,409.773773 
	C268.312439,409.817413 299.976227,409.795044 331.638855,409.975433 
	C335.656982,409.998291 336.913666,408.645020 336.752106,404.769928 
	C336.523285,399.281372 336.962433,393.764801 336.729401,388.276642 
	C336.433105,381.297699 338.921600,374.618195 342.432953,369.516235 
	C345.755219,364.688965 345.043732,358.937897 348.420258,354.575592 
	C348.802948,354.081177 348.615570,352.913147 348.348877,352.183014 
	C343.681610,339.405518 345.728851,326.192139 345.858734,313.122803 
	C345.901062,308.862000 349.119171,307.683441 352.802063,307.595703 
	C356.790222,307.500702 357.312500,310.226746 357.316315,313.320068 
	C357.318390,314.986603 357.465820,316.667877 357.299011,318.317352 
	C355.854248,332.604736 358.985870,346.381012 361.904724,360.181824 
	C362.109833,361.151520 362.239868,362.268250 362.806976,363.008514 
	C365.979462,367.149689 366.027191,371.951874 366.103790,376.823334 
	C366.200562,382.972534 365.805634,389.152069 367.307343,395.230469 
	C368.025970,398.139221 369.620300,400.709442 372.538147,400.318329 
	C378.928558,399.461823 383.083191,404.415924 388.606903,405.695709 
	C391.377808,406.337708 391.701782,408.959381 391.026947,411.438934 
	C390.504700,413.357849 389.124756,415.157318 387.094910,414.338501 
	C381.650543,412.142303 374.817535,415.178009 370.419525,408.591431 
	C369.162720,420.079895 373.283264,435.555664 379.710815,443.987762 
	C379.710815,439.249298 379.646729,435.141968 379.724915,431.037354 
	C379.863037,423.786621 382.262421,421.060028 389.500092,419.933533 
	C391.136505,419.678833 392.824127,419.761902 394.486786,419.665253 
	C404.115448,419.105499 413.728699,418.117859 423.318634,420.419861 
	C425.996765,421.062714 428.099152,419.737518 427.073303,416.467346 
	C425.847076,412.558472 425.977722,408.575806 425.884979,404.583557 
	C425.850616,403.104523 425.918243,401.621826 425.065399,400.239471 
	C420.251984,392.437805 415.274780,384.725464 410.779510,376.742767 
	C407.075653,370.165466 404.126129,363.513000 404.570892,355.321533 
	C405.292419,342.032135 404.682983,328.670044 404.614624,315.338745 
	C404.607819,314.012054 404.955322,312.320312 404.293304,311.418182 
	C399.393250,304.740936 400.618195,297.116028 400.757446,289.705292 
	C400.823364,286.195221 399.594727,285.030090 396.107056,285.115967 
	C387.112671,285.337402 378.110626,285.283936 369.111694,285.274719 
	C361.396240,285.266815 361.396271,285.226685 361.300415,292.884430 
	C361.189636,301.733093 360.539703,302.365814 351.407135,302.365479 
	C319.587769,302.364319 287.768402,302.355438 255.949036,302.350311 
	C251.116165,302.349548 246.283142,302.376434 241.450439,302.348694 
	C235.429306,302.314087 234.764099,301.652435 234.739624,295.812408 
	C234.728455,293.146057 234.517136,290.455444 234.797073,287.818359 
	C235.318573,282.905701 233.598465,281.116150 228.412552,281.147278 
	C196.916763,281.336639 165.418564,281.293518 133.922592,281.097900 
	C129.241913,281.068848 127.738365,282.563721 128.101639,287.145935 
	C128.642715,293.970947 128.744949,301.162384 126.325325,307.385010 
	C124.199280,312.852631 123.135162,318.090454 122.972435,323.775909 
	C122.906464,326.080841 122.942612,328.823334 121.761993,330.580353 
	C118.201012,335.879913 120.259605,340.564850 122.081322,345.664246 
	C124.253670,351.745178 124.452660,358.252991 121.922539,364.179871 
	C118.778603,371.544647 114.990349,378.657806 110.158234,385.153015 
	C106.818054,389.642822 103.911705,394.479462 100.732475,399.036224 
	C97.722054,403.351135 95.186325,407.611023 94.261726,412.644897 
	C92.960304,419.730286 93.493767,420.341766 100.568512,419.890533 
	C116.003777,418.906128 131.413635,418.474792 146.856827,419.849152 
	C152.665955,420.366119 157.319901,417.141449 157.555130,410.912384 
	C157.903290,401.692963 165.862350,392.780182 158.904053,383.229126 
	C158.499985,382.674469 158.950027,381.567017 158.764481,380.772400 
	C157.620346,375.873138 162.440369,372.245728 162.213425,368.289612 
	C161.614929,357.857697 166.055649,348.532288 167.835663,338.724640 
	C169.924454,327.215576 170.943359,315.898224 170.806656,304.334106 
	C170.804688,304.167480 170.806335,304.000793 170.809601,303.834167 
	C170.851334,301.705231 171.332413,299.736847 173.659225,299.097168 
	C176.012482,298.450287 177.568634,299.541412 179.165436,301.431702 
	C185.827698,309.318329 183.657974,318.579315 181.441666,326.608795 
	C179.931259,332.080872 179.227966,337.507324 178.330048,342.975494 
	C177.817963,346.094025 177.482925,349.098572 175.936996,352.037598 
	C174.309341,355.131989 173.449036,358.917786 175.900009,362.003052 
	C179.370941,366.372192 182.425232,370.748138 184.660797,376.032745 
	C188.752350,385.704712 188.589630,394.979675 184.505417,404.304169 
	C182.582367,408.694580 183.162491,413.104889 183.311066,417.547058 
	C183.378189,419.554199 185.013611,419.756714 186.648438,419.477844 
	C191.809250,418.597534 196.917175,419.316162 202.067795,419.729858 
	C206.080627,420.052155 208.172180,422.072998 208.972824,425.697632 
	C209.508469,428.122559 209.568710,430.653198 210.114349,433.075104 
	C211.529785,439.357941 208.883224,445.475281 210.551727,452.139709 
	C212.597321,460.310425 207.984451,464.154083 199.493683,464.172272 
	C192.994293,464.186188 186.493439,464.238556 179.995987,464.120758 
	C176.611557,464.059418 175.432877,465.453308 175.192841,468.854919 
	C174.512299,478.498810 174.168030,488.138672 174.265503,497.802368 
	C174.292282,500.459045 174.499039,503.288300 172.508240,505.402802 
	C170.475098,507.562256 170.301285,510.111237 170.211517,512.815979 
	C170.112244,515.806885 169.618042,518.794495 169.657898,521.778625 
	C169.836334,535.137146 165.320450,548.062988 166.194351,561.495483 
	C167.397308,579.986084 164.038208,598.631165 168.979584,617.057068 
	C171.120728,625.041321 168.694458,634.063232 173.930969,641.558350 
	C174.355637,642.166199 174.330414,643.179749 174.302841,643.997681 
	C174.063965,651.084045 177.604187,657.245178 180.187729,663.305359 
	C182.708420,669.218201 183.670471,675.566162 186.704010,681.377197 
	C189.822159,687.350342 192.017593,693.995178 194.205948,700.427368 
	C196.557281,707.338562 200.572784,713.763062 200.211517,721.704712 
	C199.796616,730.825745 198.665833,739.584778 196.719177,748.596558 
	C194.353409,759.548462 191.836838,770.372803 188.471161,781.043945 
	C187.650208,783.646851 186.448288,786.395325 188.162354,789.394104 
	C203.275528,788.210327 218.408691,788.654358 233.538101,788.764038 
	C241.775543,788.823792 243.483505,787.608154 242.678452,779.288452 
	C240.889771,760.803833 246.964691,743.286804 248.623047,725.244568 
	C248.713028,724.265503 249.019119,723.263733 249.426346,722.363770 
	C251.473663,717.839722 251.830200,713.080811 251.754471,708.194031 
	C251.653778,701.696533 251.853027,695.194702 251.778030,688.696350 
	C251.639587,676.703125 252.162155,664.706238 251.421112,652.713745 
	C251.148926,648.308716 249.301666,646.864258 244.799316,646.934937 
	C227.306503,647.209473 209.806839,647.142761 192.310501,647.054138 
	C184.881104,647.016541 183.682159,645.587646 183.699478,638.145081 
	C183.724670,627.313599 183.708694,616.481995 183.743042,605.650574 
	C183.766388,598.283936 185.108154,596.853821 192.489655,596.832214 
	C210.320953,596.779968 228.154694,596.682129 245.982620,596.938904 
	C250.760239,597.007690 252.429047,595.257690 252.751846,590.710876 
	C253.138657,585.262573 252.948746,579.652344 254.730957,574.429993 
	C256.671600,568.743347 256.956207,563.098572 256.091949,557.227539 
	C255.427505,552.713867 252.959747,552.681641 249.706833,554.273682 
	C247.632462,555.288940 245.908005,557.194397 243.448318,557.208801 
	C234.124893,557.263306 224.792862,557.420654 215.480453,557.085022 
	C211.203796,556.930908 208.777435,552.969971 210.099136,549.295044 
	C211.296310,545.966431 214.345322,545.820740 217.165176,545.777100 
	C226.161942,545.637817 235.162064,545.569214 244.158936,545.662903 
	C247.385818,545.696533 249.324585,544.429932 250.734894,541.014771 
	C248.901398,541.014771 247.592743,541.016113 246.284088,541.014526 
	C227.952759,540.992065 209.621140,541.022827 191.290283,540.916443 
	C185.132462,540.880737 183.871384,539.536926 183.826065,533.616699 
	C183.750793,523.784851 183.708481,513.952271 183.736343,504.120178 
	C183.755814,497.247192 185.278091,495.816315 193.255783,495.614197 
M340.801453,249.191193 
	C341.372833,240.145264 341.812866,239.417480 350.687592,239.231888 
	C363.011566,238.974152 375.345306,239.170197 387.674805,239.194687 
	C390.578918,239.200455 394.253052,240.978043 396.074280,238.006790 
	C398.321503,234.340546 394.018036,232.452866 392.269836,230.196106 
	C385.714020,221.733170 377.083557,215.399841 366.688324,213.547852 
	C354.802887,211.430374 344.229523,205.877396 332.804016,202.671234 
	C329.465515,201.734390 325.619110,201.044388 322.644104,199.141449 
	C318.075684,196.219299 313.653503,193.046692 309.137329,190.030334 
	C306.960602,188.576508 304.708893,187.245590 302.461700,185.925247 
	C298.550781,183.627350 299.652954,178.944916 297.586029,175.936310 
	C292.396881,168.383133 293.521332,159.622269 295.654266,152.416962 
	C297.475159,146.265884 298.531219,140.360184 298.909271,134.145203 
	C299.121307,130.660095 299.303162,127.528893 301.971985,124.509598 
	C304.517029,121.630394 307.105835,120.646957 311.272308,121.506523 
	C309.216858,118.435356 306.865906,119.300743 304.890564,119.298820 
	C283.928802,119.278366 262.966949,119.360352 242.005127,119.351936 
	C235.657928,119.349388 234.755096,118.383530 234.761017,112.110733 
	C234.771088,101.448578 234.836472,90.786469 234.841156,80.124329 
	C234.843506,74.762688 236.076126,73.287117 241.538315,73.129646 
	C245.681549,73.010193 249.836975,73.268578 253.985779,73.397690 
	C264.255341,73.717270 274.511566,72.710060 284.803741,73.427956 
	C291.962372,73.927277 299.183960,73.524078 306.122070,73.524078 
	C306.670074,71.213524 305.692413,70.442719 305.038757,69.502747 
	C300.047211,62.324806 292.365967,59.107338 284.662628,56.252480 
	C281.117828,54.938766 278.014618,52.707497 274.052002,52.138065 
	C260.165619,50.142582 248.001144,55.445763 236.042465,61.022129 
	C231.892471,62.957294 227.583191,66.086098 225.519440,70.425858 
	C222.680847,76.395065 220.830322,82.692482 221.087250,89.652985 
	C221.331650,96.274094 222.520569,102.929482 221.375259,109.586891 
	C221.200058,110.605339 221.651978,111.477478 222.197281,112.374184 
	C226.062286,118.729904 228.240677,125.753586 229.862259,132.931107 
	C230.453491,135.547974 231.289169,137.987946 232.236664,140.483261 
	C234.104233,145.401627 236.980118,150.618530 236.645554,155.521317 
	C236.215515,161.822678 233.982773,168.103592 233.549255,174.587784 
	C233.497574,175.360703 233.039185,176.211105 232.533005,176.833359 
	C223.986496,187.339401 213.420837,194.445175 199.699203,196.187897 
	C198.714935,196.312927 197.602066,196.260757 196.781937,196.713226 
	C188.924438,201.048141 180.401154,203.189789 171.631363,204.584671 
	C170.485214,204.766983 169.234879,204.901321 168.259567,205.456360 
	C159.071289,210.685043 148.589783,213.697891 140.905624,221.514481 
	C136.051819,226.451965 131.541550,231.514618 131.149445,239.109268 
	C143.756622,239.109268 155.878784,239.110641 168.000946,239.109024 
	C194.161682,239.105530 220.322495,239.061661 246.483093,239.119461 
	C254.432602,239.137039 255.338440,239.926605 255.235703,247.382446 
	C255.180130,251.415359 257.143494,252.059540 260.471069,252.048264 
	C285.463776,251.963593 310.456848,251.978363 335.449677,251.912949 
	C337.340424,251.908005 339.589355,252.496033 340.801453,249.191193 
M264.193970,728.282227 
	C264.535339,736.152832 267.652832,743.479004 268.727325,751.231506 
	C269.108032,753.978333 272.370911,755.813782 272.267517,759.226257 
	C272.005554,767.872192 272.254944,776.539795 271.773438,785.169434 
	C271.598328,788.307800 272.602661,789.131531 275.230103,789.016235 
	C290.504883,788.346313 305.781616,788.162354 321.063385,788.730591 
	C323.606781,788.825195 324.447632,787.636108 324.584229,785.099304 
	C325.450134,769.022400 319.691467,753.675842 319.454468,737.726990 
	C319.440857,736.811340 318.820282,735.833069 318.287628,735.009705 
	C316.330872,731.984863 315.721893,728.294678 317.031586,725.414124 
	C319.671417,719.607971 319.635315,713.500366 320.479095,707.480530 
	C320.972076,703.963562 323.994476,701.491882 324.012421,697.728699 
	C324.048828,690.093628 328.226685,683.523682 330.313751,676.429749 
	C331.447937,672.574707 331.668823,668.025574 334.072083,664.774292 
	C337.989441,659.474609 336.175446,653.309143 338.335815,648.136230 
	C336.540985,646.860474 335.166656,647.024414 333.859558,647.024170 
	C312.374664,647.019775 290.889374,647.110046 269.405121,647.000122 
	C264.954712,646.977356 264.159790,649.240723 264.235046,652.962341 
	C264.736359,677.754517 262.769043,702.545532 264.193970,728.282227 
M291.659790,549.613281 
	C296.488220,549.634155 301.317383,549.612183 306.144684,549.696777 
	C308.118744,549.731384 309.771881,550.486145 310.181763,552.677307 
	C310.501129,554.384583 310.474701,556.557129 308.793335,557.114441 
	C303.529755,558.859009 297.446289,562.440308 292.907227,561.113403 
	C284.833527,558.753235 276.103729,559.683044 268.257446,555.075989 
	C267.951141,562.112427 269.571594,568.552856 268.134918,574.989014 
	C266.967987,580.216614 267.476288,585.600769 267.139038,590.904968 
	C266.846161,595.511047 268.412231,596.981079 273.041992,596.927185 
	C292.854187,596.696533 312.670227,596.776917 332.484863,596.780029 
	C349.516052,596.782654 349.445404,596.803223 349.720093,579.520203 
	C349.806763,574.063660 348.727600,568.391541 350.997131,563.206116 
	C354.125946,556.057312 353.234131,548.694458 353.281555,541.074463 
	C325.328156,541.074463 297.711426,541.074463 270.094696,541.074463 
	C269.981995,541.487732 269.869293,541.901062 269.756592,542.314331 
	C276.105743,546.356689 282.850403,549.397705 291.659790,549.613281 
M323.499969,294.730865 
	C330.994781,294.728912 338.489929,294.686005 345.984222,294.746429 
	C348.751343,294.768738 350.268860,293.992249 350.371826,290.807404 
	C350.645538,282.342712 350.583588,273.892792 350.277130,265.431458 
	C350.130371,261.379700 348.353180,260.040314 344.358337,260.163025 
	C331.213959,260.566864 318.060944,260.862091 304.911011,260.871155 
	C285.788849,260.884308 266.656067,261.351990 247.548553,260.257324 
	C243.783279,260.041595 242.351578,261.679169 242.375381,265.152924 
	C242.433594,273.643341 242.609100,282.135132 242.503632,290.623474 
	C242.460648,294.082855 244.062088,294.841583 247.096695,294.752747 
	C252.588501,294.591980 258.122253,294.294617 263.573639,294.781189 
	C268.605133,295.230255 270.815552,292.438293 272.648804,288.683563 
	C273.155792,287.645203 273.318420,286.442108 273.795288,285.385071 
	C276.097778,280.281433 281.178314,279.372223 285.096893,283.351807 
	C286.758301,285.039032 287.937500,287.059509 288.702606,289.284882 
	C290.076599,293.281128 292.669891,294.936920 297.019928,294.802032 
	C305.505859,294.538849 314.005798,294.728088 323.499969,294.730865 
M294.500000,81.141090 
	C279.008606,81.152206 263.514313,81.335075 248.027618,81.071037 
	C243.307205,80.990555 241.936798,82.571823 242.164780,87.093040 
	C242.499954,93.739784 242.388504,100.417244 242.242752,107.076698 
	C242.166824,110.546021 243.567642,111.832985 246.971970,111.766174 
	C253.465576,111.638741 259.967438,111.637550 266.459198,111.820702 
	C270.296936,111.928978 272.522888,110.405663 274.197968,106.904518 
	C277.863190,99.243797 281.983307,99.155312 286.578644,106.332764 
	C287.117035,107.173645 287.721649,107.996758 288.102875,108.908653 
	C289.002533,111.060356 290.593506,111.768112 292.844055,111.761047 
	C311.999573,111.700958 331.155243,111.683060 350.310883,111.697403 
	C353.259918,111.699615 354.645111,110.522255 354.303162,107.461571 
	C353.542236,100.650299 353.800293,93.808853 354.075867,86.992310 
	C354.246002,82.783806 353.011932,81.068268 348.467651,81.119217 
	C330.813904,81.317162 313.156219,81.161354 294.500000,81.141090 
M281.812012,830.804016 
	C286.811218,830.807068 291.839905,830.471191 296.801849,830.902710 
	C302.449280,831.393982 306.087860,829.538025 307.848267,824.019958 
	C308.786652,821.078491 310.947937,819.321045 314.139526,819.125061 
	C317.330505,818.929321 318.089935,821.497681 319.418060,823.624756 
	C321.558380,827.052612 323.134766,831.072815 328.451050,831.015198 
	C346.778900,830.816406 365.109344,830.780640 383.438354,830.832336 
	C387.045258,830.842468 388.013275,829.283203 387.938599,825.980469 
	C387.776642,818.818481 387.727509,811.647278 387.911163,804.486938 
	C388.003662,800.880066 386.994354,799.394714 383.087494,799.636230 
	C363.314911,800.858215 343.520294,799.609436 323.733704,799.926636 
	C309.755798,800.150757 295.770844,800.044617 281.790375,799.927368 
	C278.084747,799.896301 276.235199,800.960999 276.342651,805.031616 
	C276.531738,812.191101 276.410706,819.361023 276.312195,826.525085 
	C276.267548,829.773376 277.758728,831.106201 281.812012,830.804016 
M279.177246,445.424561 
	C281.162415,450.533478 284.582581,452.761383 290.104523,450.983551 
	C290.859863,450.740387 291.759583,450.920197 292.591309,450.943634 
	C310.019653,451.434570 327.472382,450.255981 344.886719,451.707581 
	C347.474640,451.923279 348.722137,451.000946 349.080475,448.142273 
	C349.997070,440.829529 349.654877,433.515839 349.637665,426.200348 
	C349.624969,420.803955 348.639740,419.675781 343.117828,420.230316 
	C337.150513,420.829559 331.209595,421.336090 325.205933,421.324554 
	C296.728424,421.269867 268.250153,421.386719 239.773865,421.192474 
	C235.287170,421.161865 233.913971,422.615814 234.125717,426.924408 
	C234.411438,432.738617 234.202835,438.577942 234.177567,444.406342 
	C234.148666,451.073883 234.135239,451.013153 240.984299,451.045776 
	C243.974792,451.059998 246.966156,451.560364 249.953003,451.521545 
	C255.084442,451.454895 259.960297,450.552948 262.958282,445.668640 
	C268.184540,437.154022 272.811523,436.898956 279.177246,445.424561 
M286.794769,925.286560 
	C289.163055,924.968018 292.107086,928.235352 293.635925,925.555298 
	C295.477875,922.326355 298.374542,919.347229 298.560089,915.372009 
	C298.857056,909.009521 301.706604,903.004211 304.083191,897.771912 
	C307.270996,890.753540 307.699890,883.249146 310.348785,876.206909 
	C314.108063,866.212646 316.836304,855.682312 321.286377,845.882507 
	C323.279968,841.492371 321.154449,840.548523 317.987366,839.645935 
	C316.032440,839.088867 314.034485,839.477844 312.048279,839.810059 
	C300.173431,841.796692 288.263855,842.949219 276.302124,840.606079 
	C272.734100,839.907166 271.304657,841.526062 271.155640,844.786133 
	C270.882355,850.765137 270.670258,856.746948 270.435059,862.727722 
	C269.677002,882.003174 269.025787,901.283691 268.088226,920.550415 
	C267.853821,925.367310 269.841583,926.440674 274.005341,925.574341 
	C277.951599,924.753235 281.934052,924.639343 286.794769,925.286560 
M425.105103,511.508331 
	C425.588898,512.566345 426.054077,513.633301 426.559357,514.680908 
	C430.572266,523.000244 434.751556,531.244446 430.761536,540.903259 
	C429.204651,544.672119 431.033569,545.951355 434.828217,545.893250 
	C445.655823,545.727478 456.486725,545.784546 467.316345,545.747742 
	C478.503357,545.709778 479.291046,544.751831 477.760315,533.330933 
	C477.449066,531.008728 476.583221,529.218018 474.208405,528.393372 
	C466.400269,525.681763 462.687500,519.552551 459.727692,512.249512 
	C457.880859,507.692657 456.796387,502.765320 454.401184,498.560333 
	C451.809845,494.011078 449.620422,489.266846 447.783264,484.483276 
	C446.066010,480.011841 443.109741,476.105377 442.177765,471.254150 
	C441.806580,469.321777 439.582306,468.211487 437.416870,468.205566 
	C422.825958,468.165680 408.234863,468.184784 392.891052,468.184784 
	C402.405640,484.004211 413.710907,497.337677 425.105103,511.508331 
M305.581146,635.705994 
	C308.626556,634.788696 309.537323,631.796692 311.264008,629.663452 
	C315.432800,624.513123 319.828064,624.891724 322.443878,631.160645 
	C323.953186,634.777710 326.451935,635.958069 330.042358,636.480347 
	C340.047028,637.935608 349.999969,640.254089 359.944458,636.079285 
	C361.086761,635.599792 362.582306,635.946289 363.914307,635.936523 
	C373.071198,635.869385 382.228607,635.735901 391.384949,635.784790 
	C394.831970,635.803223 396.075836,634.501709 395.888397,630.990417 
	C395.588959,625.380127 394.695007,619.788452 396.125580,614.106628 
	C397.055389,610.413757 395.239441,608.149414 390.987518,608.141296 
	C381.343262,608.122925 371.709900,608.393066 362.059357,607.231873 
	C358.832123,606.843506 355.561127,605.545410 352.331909,606.075867 
	C343.606781,607.509155 334.834686,607.901550 326.026703,607.928589 
	C312.539032,607.970032 299.050659,608.064270 285.563965,607.958313 
	C281.194092,607.923950 279.135162,609.025085 279.796478,614.024231 
	C280.468353,619.103455 280.342834,624.322693 279.556488,629.450378 
	C278.928192,633.547241 280.242188,635.898621 284.768585,635.848999 
	C291.426697,635.776062 298.086212,635.833740 305.581146,635.705994 
M222.456253,927.136475 
	C228.215057,926.830811 233.831177,926.812744 239.331665,929.371460 
	C242.147369,930.681274 243.396606,927.703247 243.083649,925.615479 
	C241.632172,915.932861 245.914993,905.711914 240.325989,896.413574 
	C239.773056,895.493652 239.703552,894.140686 239.772766,893.010925 
	C240.706360,877.774231 237.445526,862.486206 240.629883,847.245300 
	C241.886459,841.231201 239.534760,839.129028 233.355881,839.274963 
	C220.259125,839.584167 207.269333,842.863403 194.077026,840.658813 
	C192.191605,840.343689 191.333496,841.486206 191.283600,843.288879 
	C191.223282,845.468262 191.193527,847.703308 192.485580,849.563049 
	C196.651199,855.558960 196.777924,862.992737 199.567551,869.543152 
	C201.193390,873.360901 203.992081,877.151489 203.924774,881.565002 
	C203.820068,888.429016 208.437546,893.441284 210.428833,899.469055 
	C212.484131,905.690491 215.366318,911.678162 216.942062,918.003418 
	C217.835953,921.591614 218.722992,924.653992 222.456253,927.136475 
M107.499733,464.179474 
	C103.833664,464.183594 100.090782,464.668945 96.516441,464.098419 
	C87.129677,462.600128 80.864906,465.304443 78.292419,475.167389 
	C76.809067,480.854645 73.102333,486.182251 72.636284,491.855743 
	C72.116219,498.186737 69.460472,503.584778 66.801361,508.566437 
	C62.467049,516.686401 55.563919,522.958313 47.758579,528.356934 
	C44.447609,530.646973 40.545280,531.684082 37.466797,534.592102 
	C33.129025,538.689697 31.188112,544.159424 27.655142,548.602234 
	C25.256681,551.618408 24.992432,554.918396 24.138136,558.791870 
	C27.379961,557.245728 26.421137,554.324585 27.686541,552.461975 
	C29.281897,550.113770 32.199497,550.492310 34.127911,548.956909 
	C34.473782,548.681458 34.604702,548.109375 34.782749,547.653870 
	C37.980824,539.471436 40.361012,537.819214 49.057354,537.820190 
	C60.721176,537.821411 72.387825,537.695679 84.047333,537.925232 
	C88.304146,538.008972 90.435524,536.776428 89.811241,532.281799 
	C88.682953,524.158447 92.936287,517.930237 97.252235,511.836182 
	C101.992882,505.142487 106.655922,498.333130 112.031570,492.165863 
	C118.167336,485.126556 122.191826,476.788208 127.508850,469.270782 
	C128.314468,468.131775 128.955688,466.906403 128.446548,465.558594 
	C127.855103,463.992767 126.297745,464.192322 124.997574,464.184937 
	C119.498459,464.153625 113.999039,464.178314 107.499733,464.179474 
M73.291641,548.971130 
	C65.152695,548.826660 57.011116,548.763428 48.876026,548.499939 
	C45.351421,548.385681 43.450741,549.797485 43.382984,553.324036 
	C43.264664,559.482483 43.310081,565.644470 43.163025,571.801941 
	C43.097900,574.528809 44.155552,575.792236 46.942364,575.763733 
	C55.267246,575.678528 63.594101,575.743835 71.917694,575.603088 
	C74.225388,575.564026 76.402237,575.145874 77.724236,572.573914 
	C80.334305,567.495972 83.591141,567.298584 86.796867,572.172180 
	C88.375160,574.571594 90.126381,575.640503 92.871933,575.637695 
	C113.022812,575.616699 133.173813,575.610291 153.324570,575.669128 
	C156.405716,575.678101 157.950775,574.599854 157.904510,571.314697 
	C157.813034,564.821716 157.819229,558.323975 157.966797,551.832275 
	C158.062775,547.610413 156.130203,546.674744 152.337524,547.524292 
	C145.968353,548.950989 139.459183,548.825317 132.969406,549.111755 
	C113.383888,549.976257 93.820480,546.080811 73.291641,548.971130 
M343.609680,532.769226 
	C360.939789,532.753113 378.270142,532.682556 395.599762,532.766846 
	C399.062134,532.783691 400.865448,531.898438 400.758636,528.007324 
	C400.566772,521.014343 400.765930,514.011292 400.728119,507.012848 
	C400.719452,505.404175 400.856201,503.596741 398.758301,502.729462 
	C397.174408,503.470642 395.615723,504.567688 393.899597,504.941010 
	C385.352203,506.800537 376.695099,506.657349 368.077362,505.619049 
	C360.350311,504.688110 352.684784,502.551666 344.858765,504.477875 
	C339.641724,505.761932 334.318573,505.960632 329.037842,506.054657 
	C317.383179,506.262146 305.720062,506.138336 294.062958,505.969940 
	C290.719788,505.921631 289.110596,506.930328 289.196320,510.486938 
	C289.332733,516.148682 289.343628,521.821228 289.150024,527.480408 
	C289.019623,531.293152 290.377716,532.961121 294.352081,532.790466 
	C299.508057,532.569031 304.692230,532.544800 309.843994,532.817993 
	C314.539307,533.066895 318.118500,531.937561 320.960846,527.798584 
	C323.405396,524.238831 328.127319,524.065796 330.216034,527.569275 
	C333.265991,532.684937 337.639679,533.132751 343.609680,532.769226 
M162.711090,479.505737 
	C162.718842,478.507599 162.904800,477.471863 162.703323,476.517914 
	C161.860626,472.528046 165.619720,467.476654 162.214661,464.825928 
	C159.201187,462.480011 154.140015,464.594116 150.023865,464.089111 
	C146.480560,463.654327 144.165482,465.122528 141.965530,467.790588 
	C136.972000,473.846710 132.506485,480.436920 128.399139,486.929230 
	C119.370720,501.200226 107.558182,513.662415 100.690239,529.334656 
	C99.792984,531.382141 97.473663,532.871765 98.940704,535.545593 
	C100.462212,538.318726 103.113297,537.802734 105.567497,537.810181 
	C119.537239,537.852417 133.510315,537.718750 147.475006,538.001892 
	C152.279984,538.099304 154.556137,536.392700 153.797119,531.693970 
	C151.940994,520.203430 157.191055,509.855774 159.742767,499.285156 
	C161.266647,492.972290 162.593842,486.907074 162.711090,479.505737 
M197.088791,430.221710 
	C162.976700,430.184692 128.864487,430.185303 94.752739,430.056641 
	C91.052269,430.042664 89.226059,430.881378 89.429565,435.067291 
	C89.703773,440.707550 89.487511,446.380402 89.282417,452.032043 
	C89.156792,455.494019 90.559494,456.751953 93.997269,456.684204 
	C100.968719,456.546814 107.917229,455.630432 114.929008,456.409393 
	C117.970474,456.747314 120.483719,455.751099 121.867065,452.158997 
	C123.391899,448.199463 128.358856,447.654358 130.617691,451.277100 
	C133.592880,456.048737 137.869110,456.656006 142.630814,456.638275 
	C147.946960,456.618500 153.262543,456.442230 158.578339,456.333405 
	C171.191315,456.075104 183.808762,456.998901 196.424179,456.104828 
	C199.485886,455.887817 200.942612,454.834473 200.861801,451.578369 
	C200.717422,445.758698 200.841705,439.932404 200.850006,434.108856 
	C200.852844,432.116364 200.456711,430.413544 197.088791,430.221710 
M448.225067,275.006683 
	C449.881683,275.162445 451.535767,275.355194 453.195343,275.467346 
	C459.137024,275.868958 460.785400,274.374542 460.793365,268.595581 
	C460.799805,263.934509 460.766876,259.273346 460.783234,254.612335 
	C460.808929,247.283936 460.820312,247.250702 453.245270,247.227890 
	C441.425842,247.192307 429.606262,247.199570 417.786743,247.202179 
	C396.479706,247.206863 375.172668,247.207779 353.865723,247.256210 
	C351.999634,247.260452 349.518097,246.625015 349.331696,249.705307 
	C349.156128,252.606583 351.409454,251.990799 353.166260,252.233795 
	C358.869080,253.022476 361.273773,255.787338 361.373932,261.584229 
	C361.428528,264.746063 361.393616,267.909912 361.366791,271.072540 
	C361.346710,273.437500 362.344818,274.885468 364.819519,275.060883 
	C371.838623,275.558380 378.877808,276.132477 383.932983,269.659210 
	C386.690277,266.128418 389.841461,266.234467 391.994843,269.829651 
	C397.187317,278.498718 405.535339,277.810883 413.273102,276.598816 
	C424.621399,274.821167 435.941650,275.094635 448.225067,275.006683 
M301.424042,958.437622 
	C309.433014,960.638672 317.475555,959.642517 325.615845,959.223694 
	C338.740417,958.548401 351.915710,958.670410 365.066223,958.799683 
	C369.286896,958.841187 371.277588,957.852356 370.910767,953.278748 
	C370.605713,949.475281 370.926605,945.624451 370.899902,941.795166 
	C370.855499,935.425415 370.244293,935.203796 363.970795,935.535828 
	C345.683685,936.503723 327.389526,936.561584 309.088257,935.524902 
	C305.073486,935.297424 301.263428,932.830688 297.441254,933.710449 
	C285.430206,936.474792 273.540161,936.986084 261.549835,933.832886 
	C257.325195,932.721985 255.344864,934.328247 255.244827,938.908508 
	C255.128510,944.234192 255.371704,949.570496 255.161987,954.890503 
	C254.993423,959.166809 257.163330,960.794006 260.942780,960.292542 
	C268.715027,959.261108 276.496002,958.753723 284.332275,958.792847 
	C285.580780,958.799072 287.177704,958.395264 288.026062,957.574036 
	C292.525818,953.218567 296.640076,954.521729 301.424042,958.437622 
M238.268600,252.443680 
	C239.923462,252.308258 241.577591,252.163101 243.233368,252.039978 
	C245.052475,251.904678 247.356384,252.096207 247.359726,249.549423 
	C247.363281,246.834396 244.935944,247.291550 243.200455,247.289169 
	C207.544769,247.240250 171.888977,247.252029 136.233414,247.162552 
	C132.715546,247.153732 131.377930,248.801926 131.460739,252.000107 
	C131.607147,257.655701 131.809433,263.310211 132.043472,268.962891 
	C132.114410,270.676697 132.412277,272.655792 134.617737,272.562134 
	C144.485214,272.143036 154.652939,274.811462 164.096252,269.821014 
	C167.754105,267.887939 171.348312,267.518005 174.839233,270.258392 
	C177.598053,272.424103 180.778900,272.953735 184.232635,272.870880 
	C198.178345,272.536285 212.126404,272.286316 226.074692,272.078949 
	C234.461258,271.954285 234.715057,271.665833 234.805130,263.354279 
	C234.845139,259.662750 233.680359,255.545624 238.268600,252.443680 
M245.235962,798.966431 
	C228.791565,800.743652 212.298386,800.142761 195.823929,799.768433 
	C192.509491,799.693176 191.273514,800.406433 191.310913,803.740173 
	C191.393143,811.067383 191.443466,818.405151 191.133942,825.722778 
	C190.950378,830.062866 192.795547,831.185120 196.759811,830.975525 
	C201.909943,830.703247 207.092300,830.666016 212.243896,830.899963 
	C217.587265,831.142578 221.289017,829.796448 223.709030,824.333618 
	C226.348083,818.376282 230.235855,818.370300 234.418671,823.465027 
	C234.946655,824.108093 235.756882,824.665894 235.968918,825.398560 
	C237.542923,830.836548 241.940048,831.487244 246.519806,831.598206 
	C252.162048,831.734985 257.811157,831.684509 263.455566,831.599609 
	C266.925507,831.547424 268.931061,830.257263 268.769714,826.153320 
	C268.482788,818.855530 267.743744,811.547180 268.607544,804.224731 
	C268.915009,801.618774 267.918457,799.252014 265.011597,799.235291 
	C258.707764,799.199036 252.444458,797.379944 245.235962,798.966431 
M219.501480,506.176147 
	C212.011383,506.290619 204.487640,506.647491 197.070572,505.472351 
	C192.693283,504.778839 191.299179,506.462708 191.360916,510.502319 
	C191.449951,516.328125 191.520889,522.162354 191.301926,527.981812 
	C191.157776,531.813232 192.880020,532.909424 196.397385,532.813538 
	C202.387177,532.650269 208.391281,532.578430 214.376007,532.811646 
	C218.559860,532.974670 221.570221,531.782227 224.154160,528.252625 
	C227.497955,523.685303 230.414642,523.930359 234.276764,528.109131 
	C236.021179,529.996582 237.237488,532.700500 240.431458,532.701477 
	C251.586197,532.704712 262.740936,532.711548 273.895660,532.728027 
	C276.262848,532.731506 277.731598,531.783386 277.742889,529.228760 
	C277.773132,522.408142 277.827545,515.587463 277.802429,508.767029 
	C277.794525,506.618530 276.828827,505.344177 274.400330,505.544342 
	C256.449280,507.024292 238.465836,505.761230 219.501480,506.176147 
M229.489563,625.874084 
	C231.343445,625.760803 232.993790,626.601807 233.701157,628.085510 
	C236.553116,634.067078 241.202393,636.880310 247.744186,636.790771 
	C248.054428,636.786499 248.380096,636.981812 248.677765,637.126831 
	C253.571411,639.511414 258.793274,638.763245 263.908966,638.565552 
	C267.203888,638.438171 268.953156,636.527527 268.885986,632.998779 
	C268.771912,627.009094 268.819031,621.015747 268.843201,615.024170 
	C268.875214,607.091797 265.365448,604.104614 257.368805,605.565979 
	C253.776993,606.222290 250.282990,607.278564 246.572510,607.389893 
	C230.616562,607.868469 214.666428,608.570190 198.710205,607.340454 
	C192.492340,606.861206 191.320251,608.022705 191.312347,614.212708 
	C191.304916,620.038269 191.495483,625.871094 191.257706,631.686829 
	C191.090042,635.787842 193.087494,637.313782 196.675690,636.750183 
	C203.298950,635.709778 209.938248,635.849365 216.590408,635.851135 
	C219.687637,635.851929 222.147110,634.894409 222.807404,631.378479 
	C223.415192,628.142273 225.827698,626.787476 229.489563,625.874084 
M392.121246,488.337708 
	C385.705780,480.818420 381.013275,472.078217 375.049469,464.237335 
	C373.657623,462.407410 371.537933,460.870819 371.512329,458.352417 
	C371.447296,451.957031 365.309845,447.354614 366.400085,440.652374 
	C366.447235,440.362183 366.294189,439.945953 366.088837,439.721771 
	C359.983978,433.056274 361.282593,423.900299 358.579620,416.077484 
	C356.025177,408.684387 355.195221,400.300629 355.600189,391.988861 
	C355.879913,386.247559 353.318634,380.542328 353.315613,374.599060 
	C347.972809,383.149841 348.502655,392.390869 349.022614,401.675476 
	C349.182617,404.532104 350.135406,406.927948 352.076630,408.818726 
	C356.933289,413.549011 357.889130,419.322449 357.368103,425.753662 
	C357.046692,429.720612 357.389679,433.737579 357.334229,437.730713 
	C357.214722,446.331726 355.942291,455.036133 356.154999,463.438263 
	C356.396790,472.988312 356.144226,483.293243 361.563538,492.283936 
	C362.886169,494.478210 363.747833,495.428406 366.367432,495.270996 
	C375.346954,494.731354 384.341644,494.488800 393.311981,495.638123 
	C394.548309,495.796509 396.011414,496.215637 396.932159,494.595032 
	C396.593018,491.880066 394.485809,490.448883 392.121246,488.337708 
M231.026031,959.153748 
	C232.678131,959.322266 234.383377,959.836548 235.972046,959.592407 
	C240.216248,958.939941 246.013977,958.330139 247.046097,954.352905 
	C248.823135,947.504944 248.185349,940.078979 247.142075,932.614990 
	C235.876892,935.333923 225.172791,934.989319 214.477737,933.581604 
	C210.149353,933.011841 208.197174,934.642456 208.241043,938.964294 
	C208.291641,943.951172 208.352478,948.942932 208.191788,953.925537 
	C208.063995,957.887939 209.930923,959.178772 213.659775,959.070740 
	C219.139740,958.911865 224.628235,959.047058 231.026031,959.153748 
M471.593536,511.062714 
	C472.320648,514.085266 473.468750,516.696777 477.589142,516.963135 
	C477.589142,501.531219 477.598053,486.262634 477.572876,470.994049 
	C477.570740,469.710297 476.869720,468.535614 475.561432,468.517151 
	C468.672424,468.419952 461.781311,468.471619 454.353424,468.471619 
	C455.457153,472.662689 454.458679,476.381134 456.423462,479.432739 
	C459.369690,484.008698 460.009369,489.799225 463.757080,493.830139 
	C468.164764,498.570953 467.349762,505.514160 471.593536,511.062714 
M251.175003,854.856201 
	C251.182983,871.849304 251.096161,888.843323 251.247391,905.835144 
	C251.304794,912.286438 251.771286,918.769348 256.613281,925.568726 
	C256.242706,918.886597 258.399811,913.767578 258.501587,908.609619 
	C258.875977,889.631714 260.401520,870.676270 259.781738,851.678162 
	C259.649902,847.636475 258.114197,844.228638 255.428452,840.580139 
	C253.215469,845.287537 251.502060,849.381958 251.175003,854.856201 
M245.195679,974.888611 
	C244.854004,968.168518 241.601532,965.429321 234.508041,966.359619 
	C226.915695,967.355469 219.284561,968.034241 211.726639,966.899414 
	C205.749100,966.001892 197.067276,969.177063 193.267883,974.691528 
	C194.858383,975.970276 196.738464,975.573059 198.509766,975.597900 
	C206.912979,975.715332 215.182526,973.979004 223.764206,975.361938 
	C230.501831,976.447632 237.653763,976.142822 245.195679,974.888611 
M279.512848,967.252075 
	C276.058380,966.954834 272.600494,966.691895 269.150940,966.345581 
	C267.492523,966.179077 265.708374,965.704895 264.735199,967.540344 
	C263.779907,969.342163 264.270569,970.948486 265.721710,972.464050 
	C267.335541,974.149536 269.138245,975.082703 271.321777,976.047058 
	C277.048218,978.576233 282.279510,975.695557 287.713257,975.584045 
	C291.209229,975.512329 291.789032,972.232544 291.934082,969.818787 
	C292.093292,967.168640 289.350006,967.300781 287.420288,967.215820 
	C285.111542,967.114075 282.792786,967.239807 279.512848,967.252075 
M175.421478,380.264069 
	C174.524017,378.001434 175.435379,374.215607 171.115295,374.727020 
	C169.970413,376.297119 170.510406,377.851776 170.312012,379.299866 
	C168.658173,391.370972 174.000778,404.168579 166.491135,415.679596 
	C165.802734,416.734772 165.797623,419.027313 167.718903,419.417297 
	C169.873703,419.854675 170.530304,417.968658 170.629547,416.230469 
	C170.801239,413.223785 170.777145,410.049927 172.135178,407.428406 
	C176.495636,399.011108 175.188644,389.971710 175.421478,380.264069 
M259.720581,777.928833 
	C259.971497,772.285461 260.320007,766.644165 260.436249,760.998047 
	C260.504761,757.669617 259.853607,754.520264 256.017426,752.708557 
	C255.391663,759.431702 254.876312,765.890442 251.978134,771.843201 
	C251.057343,773.734375 251.323471,775.970459 252.315598,777.654175 
	C254.139252,780.749084 255.213364,784.056824 255.758423,788.240234 
	C257.865051,784.799438 259.205505,781.983459 259.720581,777.928833 
M305.738098,975.708496 
	C309.763153,975.708496 313.788208,975.708496 318.887360,975.708496 
	C312.210815,969.846497 299.866821,967.132935 295.688141,970.337830 
	C299.658997,970.997070 301.083984,975.211792 305.738098,975.708496 
M56.453182,607.737061 
	C56.807045,602.493164 56.789925,597.329041 59.291946,592.295593 
	C60.587135,589.690002 60.756660,585.598694 55.788303,583.851379 
	C55.054379,590.933594 55.018234,597.950867 55.091591,604.967102 
	C55.103199,606.077148 54.308350,607.602234 56.453182,607.737061 
M43.149471,584.068420 
	C41.508591,590.488281 42.516068,596.929077 42.841549,603.431213 
	C43.518616,600.169556 44.765450,597.300293 46.243607,594.395203 
	C48.284027,590.384949 46.717674,584.909119 43.149471,584.068420 
M478.484833,604.467285 
	C478.603668,601.192322 478.772614,597.918030 478.811462,594.642090 
	C478.823425,593.632874 478.346680,592.654419 477.146942,592.551941 
	C475.920319,592.447144 475.275391,593.349854 475.257874,594.370789 
	C475.178162,599.025452 475.222900,603.682312 475.222900,608.412415 
	C477.508545,608.155701 477.546814,606.411865 478.484833,604.467285 
M451.941864,599.393555 
	C451.686676,592.108093 451.686676,592.108093 447.711395,592.854126 
	C451.377228,599.091003 450.418396,606.210083 451.727173,613.314453 
	C454.634003,611.932800 455.071899,610.141174 453.985077,607.889648 
	C452.813049,605.461609 452.097504,602.944702 451.941864,599.393555 
M68.978554,599.225708 
	C69.337440,594.018799 73.315163,589.434265 71.988876,583.532715 
	C68.486610,586.760925 66.578682,597.552124 68.517265,602.717346 
	C68.676140,601.527588 68.783127,600.726501 68.978554,599.225708 
M463.213013,595.591919 
	C463.546722,599.633789 463.880402,603.675659 464.214111,607.717529 
	C464.686096,603.894653 464.711823,600.097107 464.658997,596.300598 
	C464.650848,595.715271 464.281830,595.134888 464.079712,594.552246 
	C463.826324,594.694214 463.572937,594.836182 463.213013,595.591919 
z"/>
<path fill="#000000" opacity="1.000000" stroke="none" 
	d="
M481.000000,293.531342 
	C479.982147,288.622955 478.238098,283.267090 478.080688,277.864990 
	C477.581818,260.744110 476.961456,243.599304 478.690063,226.489517 
	C479.323700,220.217865 478.895721,213.839828 480.797577,207.337250 
	C481.000000,235.687561 481.000000,264.375122 481.000000,293.531342 
z"/>
<path fill="#000000" opacity="1.000000" stroke="none" 
	d="
M481.000000,147.531342 
	C479.290436,142.393860 479.204254,136.526566 479.085724,130.811874 
	C478.746155,114.437325 479.045105,98.050888 480.801453,81.359909 
	C481.000000,103.020897 481.000000,125.041786 481.000000,147.531342 
z"/>
<path fill="#000000" opacity="1.000000" stroke="none" 
	d="
M481.000000,952.531372 
	C479.108582,943.933716 479.898743,934.829224 480.805542,925.362915 
	C481.000000,934.020874 481.000000,943.041809 481.000000,952.531372 
z"/>
<path fill="#000000" opacity="1.000000" stroke="none" 
	d="
M139.776962,403.548462 
	C136.504272,401.493744 136.413498,398.725616 137.337570,395.895630 
	C138.282883,393.000610 140.871109,392.753296 143.458923,392.738678 
	C145.987320,392.724396 148.420624,392.214569 150.603287,390.926453 
	C152.768295,389.648743 154.707932,389.344055 155.997375,391.949463 
	C157.236969,394.454071 157.848419,397.071045 155.226074,399.143707 
	C150.819595,402.626465 146.035797,405.022186 139.776962,403.548462 
z"/>
<path fill="#000000" opacity="1.000000" stroke="none" 
	d="
M229.219849,730.337708 
	C231.643875,731.560486 233.710159,732.613953 235.743988,733.726746 
	C237.134918,734.487732 238.156601,735.586792 237.919785,737.299927 
	C237.717468,738.763550 236.682693,739.697815 235.311554,739.998596 
	C229.078979,741.366028 222.778397,741.065186 216.586334,739.992065 
	C213.624222,739.478760 212.879669,735.736023 215.443542,734.367126 
	C219.571579,732.163147 223.565216,728.907715 229.219849,730.337708 
z"/>
<path fill="#000000" opacity="1.000000" stroke="none" 
	d="
M295.233459,740.387451 
	C294.154480,740.509216 293.491730,740.568481 292.848969,740.715210 
	C289.564056,741.465149 286.408752,741.103638 286.021759,737.213989 
	C285.600128,732.976440 289.158844,732.811523 292.225403,732.788269 
	C296.855011,732.753174 301.496735,732.672607 306.111603,732.960205 
	C308.862701,733.131653 311.760864,734.188416 310.881592,737.774841 
	C310.146606,740.772766 307.999817,742.453003 304.482910,741.508362 
	C301.614075,740.737793 298.673462,740.175903 295.233459,740.387451 
z"/>
</svg>