<svg version="1.1" id="Layer_1" xmlns="http://www.w3.org/2000/svg" xmlns:xlink="http://www.w3.org/1999/xlink" x="0px" y="0px"
	 width="100%" viewBox="0 0 576 1024" enable-background="new 0 0 576 1024" xml:space="preserve">
<path fill="#000000" opacity="1.000000" stroke="none" 
	d="
M78.829773,513.851318 
	C86.054482,509.235291 87.697289,501.449341 90.464409,494.677582 
	C92.997360,488.478912 95.162498,482.139221 97.982689,476.016357 
	C100.028305,471.575195 101.333557,466.561127 102.367149,461.935516 
	C103.916077,455.003601 107.293350,448.704529 108.187073,441.513397 
	C108.829491,436.344360 111.862656,431.425171 114.129509,426.533630 
	C114.825287,425.032227 115.844101,423.700348 115.903381,421.979889 
	C116.218529,412.833679 120.843079,405.131409 123.700714,396.796844 
	C126.456001,388.760803 132.071793,382.275757 134.030075,374.061981 
	C134.209381,373.309967 134.779694,372.528351 135.385788,372.019287 
	C144.551941,364.319946 146.687759,354.028320 146.691025,342.719604 
	C146.694244,331.567566 146.367233,320.400635 147.605667,309.262054 
	C148.069397,305.091125 150.504730,301.510895 150.494003,297.213623 
	C150.487289,294.531586 150.831192,291.799316 149.775650,289.323486 
	C145.858093,280.134552 145.527023,270.665833 146.757156,260.905548 
	C148.369202,248.114960 151.353928,235.768051 159.305542,225.384766 
	C166.614029,215.841354 174.578445,207.158722 187.071045,203.648193 
	C196.660858,200.953354 206.047852,197.642792 215.741074,195.123810 
	C221.822266,193.543457 228.537155,192.516693 234.347763,188.855148 
	C238.522751,186.224335 244.051651,186.430084 248.795959,183.986420 
	C253.413651,181.607925 256.571350,177.934662 260.409546,174.888596 
	C260.988159,174.429413 261.380676,173.487411 261.486298,172.717606 
	C263.257843,159.801636 259.104431,148.630112 250.932693,138.881363 
	C248.958466,136.526123 247.248917,133.768631 246.443253,131.283096 
	C244.142761,124.185989 237.431747,117.374153 240.616928,109.812393 
	C244.639725,100.262077 242.953400,90.585381 244.345078,81.063385 
	C245.899475,70.428062 250.546097,61.031685 260.394318,55.072998 
	C267.619385,50.701462 275.382141,48.032810 283.473694,45.712753 
	C290.112030,43.809349 296.567505,42.411247 303.486420,42.707642 
	C308.199188,42.909534 312.494781,44.002869 317.008942,45.416245 
	C323.747833,47.526180 330.946106,48.264080 338.030975,49.232105 
	C343.622589,49.996098 349.488068,48.751915 354.863190,51.509338 
	C357.261169,52.739491 358.340912,54.258156 358.312378,56.940731 
	C358.195374,67.938972 359.008911,79.025063 357.850433,89.905319 
	C357.144409,96.536041 356.269714,102.567871 357.974365,109.339485 
	C359.985870,117.330055 357.227997,124.754051 351.443237,131.294067 
	C348.651459,134.450333 346.650787,138.346832 343.032776,140.859268 
	C342.658478,141.119202 342.279907,141.673416 342.263947,142.104431 
	C341.986267,149.609039 335.569214,155.860626 337.331726,163.592438 
	C339.211212,171.837204 341.485229,179.803680 350.594513,183.999557 
	C354.819885,185.945816 359.810852,186.916077 363.253052,190.571442 
	C363.673004,191.017441 364.414032,191.330750 365.036743,191.391098 
	C377.137085,192.563843 387.522125,199.832916 399.728088,200.984375 
	C403.574524,201.347214 407.076843,204.600784 410.898041,206.127365 
	C423.296631,211.080673 431.474274,220.541260 438.152344,231.522919 
	C439.864899,234.339066 442.004059,234.655151 444.814819,234.645111 
	C461.980682,234.583801 479.146942,234.610764 496.313049,234.632919 
	C502.477936,234.640884 503.173401,235.337814 503.201019,241.537430 
	C503.249237,252.367249 503.263580,263.197266 503.274872,274.027191 
	C503.280701,279.623810 502.362213,280.370697 496.967468,280.334778 
	C481.303253,280.230469 465.637756,280.316162 449.973755,280.195679 
	C446.030731,280.165375 444.431915,281.816376 443.862183,285.703949 
	C442.904419,292.239380 443.996033,298.671265 444.049042,305.148376 
	C444.175903,320.645782 443.856537,336.151978 444.273926,351.639648 
	C444.469574,358.899231 448.250122,365.408081 450.418304,372.258545 
	C452.975800,380.339203 459.786621,385.792816 461.940552,394.497284 
	C463.964600,402.676819 467.843842,410.627808 470.124451,418.962463 
	C471.173706,422.797058 474.488159,422.018799 477.167511,422.029877 
	C489.999268,422.083008 502.831635,421.985535 515.663818,421.958496 
	C523.829468,421.941284 531.995239,421.933197 540.160828,421.958923 
	C546.992432,421.980469 550.287170,424.944458 550.327881,431.482635 
	C550.407715,444.314148 550.169678,457.148682 550.348877,469.977966 
	C550.415649,474.757416 548.299072,476.696228 543.843811,476.709747 
	C531.514587,476.747101 519.184631,476.854584 506.856476,476.752747 
	C501.211884,476.706116 495.578247,477.198181 489.907440,476.535889 
	C485.523956,476.023926 485.465515,479.691193 487.105621,481.783112 
	C490.833405,486.537842 491.348755,492.515259 493.517334,497.743378 
	C496.037872,503.819946 499.092255,509.308167 502.235596,514.996582 
	C505.230042,520.415588 509.735779,524.032654 513.562134,528.430298 
	C517.119751,532.518921 521.254150,536.100708 524.930481,540.093567 
	C526.128845,541.395020 527.338379,541.656799 528.876282,541.644165 
	C538.697083,541.563477 548.518860,541.555359 558.338745,541.413574 
	C566.009338,541.302795 567.300537,542.447876 567.283264,550.284607 
	C567.256531,562.448059 567.123901,574.611206 567.058167,586.774597 
	C567.017273,594.347473 565.407166,596.055542 557.576477,596.128784 
	C546.578552,596.231750 535.579224,596.177246 524.580444,596.186401 
	C517.577881,596.192261 516.782043,596.677368 516.477173,603.717163 
	C516.242737,609.131470 516.267639,614.669434 511.981049,618.505554 
	C507.367126,622.634583 502.245789,626.225647 497.147766,629.766235 
	C495.700958,630.771118 493.346100,630.613708 491.820038,629.646851 
	C485.451385,625.611938 477.303223,624.649597 472.738708,617.338806 
	C470.095764,613.105713 465.734772,609.955444 462.201843,606.265320 
	C458.136536,602.019043 457.365967,596.594788 457.075562,591.079895 
	C456.931488,588.343567 456.401367,585.862122 454.732819,583.601990 
	C454.073792,582.709351 453.584595,581.442139 453.588013,580.347290 
	C453.631897,566.289551 446.285797,553.091919 448.785980,538.738037 
	C449.152344,536.634705 448.804810,534.412964 448.857208,532.247681 
	C448.958160,528.074707 447.836823,524.751953 445.459686,520.890137 
	C438.448029,509.499268 430.673462,498.674591 422.647430,488.055786 
	C419.150421,483.429077 416.729584,477.727356 411.095581,474.694489 
	C408.755463,473.434753 408.274231,470.337646 407.692871,467.685974 
	C406.899048,464.065491 406.565582,460.602234 403.203552,457.634125 
	C400.481384,455.230988 400.898926,450.384460 398.835846,446.808258 
	C396.512878,442.781616 394.018738,438.770264 392.200470,434.296112 
	C390.186646,429.340881 388.892639,424.562805 389.011383,419.445160 
	C389.130615,414.307861 385.672485,410.466095 384.840485,405.724121 
	C384.615509,404.441986 383.279297,404.105469 382.000244,404.274994 
	C380.337982,404.495270 379.626343,405.867157 379.705719,407.130249 
	C380.173126,414.566681 378.820892,422.342041 381.985565,429.308990 
	C383.964325,433.665222 384.452850,437.930695 384.122742,442.400391 
	C383.815094,446.565887 384.364532,450.753448 383.993073,454.831696 
	C383.080261,464.852844 387.391296,473.272308 391.215607,481.915436 
	C391.615997,482.820282 392.068298,483.751862 392.211304,484.713501 
	C395.292664,505.433289 399.307953,526.249329 395.709473,547.159302 
	C394.009369,557.038086 393.150421,566.851501 392.488831,576.767212 
	C392.021545,583.770508 392.266479,583.929565 399.367188,583.963928 
	C411.013947,584.020325 422.660065,584.283081 434.305389,584.511963 
	C437.811951,584.580933 441.329010,588.649597 440.899780,592.962952 
	C440.388763,598.098389 441.223419,603.169678 441.548309,608.175293 
	C441.946808,614.314575 440.718353,620.082031 440.074677,625.998413 
	C439.676483,629.658569 437.164459,630.318604 433.960693,630.297607 
	C420.131622,630.206726 406.301788,630.247375 392.472260,630.218872 
	C385.491882,630.204468 381.469940,633.457336 380.274017,640.452698 
	C378.876465,648.627563 374.454590,655.830933 372.610687,663.719299 
	C371.148865,669.973145 367.221252,675.337158 367.027618,681.958984 
	C366.861084,687.654358 363.630219,692.338867 360.570709,696.822632 
	C359.161438,698.888000 358.274780,700.764709 358.279694,703.159973 
	C358.311829,718.824158 358.258453,734.489319 358.445160,750.151672 
	C358.488342,753.773499 358.932068,757.490234 361.143463,760.664795 
	C361.515381,761.198608 361.880920,761.879944 361.892975,762.500061 
	C362.101166,773.213257 367.628082,782.971375 367.299561,793.836365 
	C367.091644,800.712830 369.244995,802.194458 375.997681,802.119690 
	C390.142303,801.963013 404.294800,801.450073 418.427185,802.655701 
	C424.104004,803.139954 426.798950,805.745605 426.820312,811.090820 
	C426.865601,822.415894 426.781250,833.743347 427.007019,845.064758 
	C427.096466,849.549805 425.707825,852.228027 421.070251,853.345947 
	C409.769531,856.070068 398.307556,856.155884 386.848114,855.581726 
	C378.533875,855.165222 370.171387,855.794128 361.898712,854.462646 
	C360.490234,854.235962 358.813080,854.596497 358.585449,856.030945 
	C357.918854,860.232361 355.638977,863.927612 353.831421,867.413940 
	C350.253540,874.314819 349.886902,881.961365 347.348877,889.069092 
	C345.170868,895.168640 341.574615,901.018738 341.195679,907.765930 
	C341.024445,910.815186 337.305267,912.480042 338.002197,915.908020 
	C339.550781,917.451416 341.473297,916.773499 343.218964,916.776001 
	C364.218231,916.805908 385.217590,916.770325 406.216888,916.795166 
	C413.320343,916.803528 414.073242,917.626038 414.097229,924.973206 
	C414.130402,935.137451 414.153900,945.301880 414.152374,955.466187 
	C414.151428,961.662048 412.820923,962.991638 406.426483,963.005066 
	C388.093842,963.043518 369.761047,963.022034 351.428406,963.061218 
	C349.650848,963.065002 347.755798,962.530579 345.849792,964.018555 
	C345.972931,967.262390 348.452576,967.562317 350.937225,967.937805 
	C357.725800,968.963745 359.545624,971.529358 359.132172,979.390869 
	C358.915131,983.517944 353.778961,988.125488 349.110779,988.158813 
	C331.783203,988.282532 314.454041,988.247131 297.127808,988.460999 
	C291.918488,988.525269 287.826630,987.461243 286.593933,980.237854 
	C281.575500,989.158081 273.980682,988.351624 266.452942,988.287476 
	C259.832825,988.231079 253.153244,987.559326 246.627625,989.783264 
	C243.557724,990.829590 240.430389,988.944031 237.255142,988.899841 
	C232.764313,988.837463 228.278610,988.386780 223.787949,988.332886 
	C216.447571,988.244690 211.206512,984.674866 210.692886,979.186462 
	C209.967194,971.431763 214.760117,965.002686 222.157242,963.774902 
	C222.778168,963.671814 223.371338,963.401367 223.730484,963.287231 
	C222.429413,949.137878 222.430069,935.222534 222.957001,921.301147 
	C223.064774,918.453796 225.180679,917.283936 227.696167,917.063538 
	C230.344681,916.831543 233.025269,916.995178 235.685669,916.862488 
	C239.750427,916.659729 240.765106,914.900635 238.863007,911.478699 
	C234.802155,904.173279 232.774139,895.945557 228.023438,888.895935 
	C222.425720,880.589417 220.018433,870.690002 215.715469,861.687500 
	C211.994827,853.903503 209.575531,845.226501 209.842499,836.222717 
	C209.937195,833.028748 209.082291,830.060303 208.123352,826.989258 
	C205.181213,817.566589 204.610016,808.053955 208.997635,798.804871 
	C210.055069,796.575745 209.825760,794.261047 209.916199,791.944580 
	C210.225372,784.026062 211.061722,776.437561 213.441315,768.570801 
	C217.228851,756.049316 222.643005,743.202271 221.053543,729.965515 
	C220.240494,723.194763 220.810760,715.284180 215.849487,709.214233 
	C215.350479,708.603699 214.995560,707.714600 214.938919,706.928406 
	C214.402283,699.478760 210.367493,693.373047 207.374649,686.861389 
	C206.825974,685.667664 206.282761,684.330139 206.270950,683.053955 
	C206.196396,675.006226 202.053558,668.434998 198.909729,661.435425 
	C196.909302,656.981506 195.783371,652.114624 194.160370,647.492065 
	C190.849915,638.063416 187.502396,628.336487 188.728134,617.889038 
	C189.278992,613.193604 187.803772,608.843750 186.215912,604.337769 
	C183.421219,596.407166 184.334167,587.854736 184.277283,579.586609 
	C184.247391,575.241821 183.210449,573.946716 179.091370,574.199829 
	C163.446884,575.161133 147.790054,575.127136 132.137680,574.348633 
	C127.363922,574.111267 125.124283,576.069702 123.935638,580.941711 
	C121.798225,589.702515 119.836418,598.656372 114.986946,606.476562 
	C113.619659,608.681458 111.856194,611.510864 109.691124,612.187561 
	C103.214272,614.211853 99.605385,619.649292 94.686554,623.470459 
	C89.725739,627.324280 78.892677,627.184875 74.218086,622.817017 
	C73.857582,622.480164 73.488731,621.992310 73.060204,621.911438 
	C61.571400,619.744141 61.907677,610.007263 61.264454,601.925537 
	C60.408962,591.176880 61.148621,580.301270 61.199162,569.480225 
	C61.203773,568.493225 61.355251,567.461426 59.824123,566.105957 
	C56.858719,568.028748 53.480408,569.887634 50.492249,572.241821 
	C46.865582,575.099060 43.181858,575.377869 39.417522,573.123047 
	C36.536270,571.397156 35.631218,565.824768 37.752533,562.174683 
	C39.541996,559.095642 40.401314,555.486877 43.656113,553.165588 
	C47.952316,550.101624 49.727776,544.671997 51.563435,540.359863 
	C54.894390,532.535095 61.916798,529.471863 67.289131,524.336853 
	C70.959305,520.828857 75.567604,518.352051 78.829773,513.851318 
M351.045135,307.332153 
	C359.547699,307.890411 367.888763,307.786987 375.100769,302.189545 
	C376.981995,300.729462 378.668915,297.553619 381.314941,298.969421 
	C385.166168,301.029968 389.639282,300.650818 393.359863,302.855530 
	C394.888916,303.761566 396.101471,304.790253 396.420319,306.554504 
	C397.650116,313.359100 398.209900,320.414673 395.483368,326.730042 
	C393.703125,330.853394 392.828583,334.892181 392.441956,339.142975 
	C391.686493,347.449554 390.722992,356.200104 393.755676,363.845093 
	C396.131104,369.833099 397.132904,375.513184 397.131531,381.669373 
	C397.129761,389.502106 397.589172,397.370148 397.003998,405.159393 
	C396.111969,417.034058 401.271545,427.163330 406.941132,437.223328 
	C407.207397,435.906769 407.567200,434.789398 407.642059,433.653229 
	C408.258820,424.293396 410.936249,421.837524 420.375397,421.949554 
	C431.533539,422.082001 442.704651,421.455078 453.846558,422.410339 
	C456.785339,422.662354 457.460083,421.664215 457.427521,418.729523 
	C457.351349,411.861359 453.471100,406.156281 452.092834,399.682220 
	C451.444061,396.634979 448.962250,393.932434 447.136719,391.189758 
	C441.367249,382.521667 435.700531,373.847107 435.818787,362.819519 
	C435.836365,361.181061 435.825775,359.325592 435.116272,357.933380 
	C431.961670,351.743591 431.833618,345.115631 431.830719,338.440491 
	C431.823151,320.942688 431.740601,303.444122 431.896576,285.947693 
	C431.934937,281.644470 430.539276,279.936401 426.093475,280.219635 
	C420.949982,280.547394 415.767944,280.243286 410.602844,280.264648 
	C400.693634,280.305664 401.042297,279.082397 401.241302,289.104370 
	C401.325378,293.340576 400.034912,296.852509 395.006378,297.084381 
	C384.706543,297.559326 374.329346,298.063904 364.102264,297.868713 
	C353.177826,297.660217 342.216064,297.630371 331.280182,297.399811 
	C313.290070,297.020477 295.286438,297.307098 277.288727,297.249512 
	C270.943604,297.229218 269.792908,295.994568 269.745483,289.561218 
	C269.716034,285.562256 269.615875,281.554199 269.832947,277.565765 
	C270.059357,273.406250 268.316681,271.926758 264.222076,272.161652 
	C256.748169,272.590393 249.185471,273.461273 241.787384,272.774200 
	C229.496887,271.632812 217.248749,272.899567 204.975266,272.326233 
	C191.517426,271.697571 178.010086,272.147217 164.524506,272.086365 
	C158.076218,272.057281 156.197403,274.877716 159.585342,280.492401 
	C161.704758,284.004822 161.808060,287.617523 162.321762,291.416748 
	C163.133026,297.416809 159.401428,302.231323 158.922516,307.865326 
	C157.804703,321.015839 158.552155,334.182739 158.188705,347.335632 
	C158.133987,349.315521 158.275070,351.526764 157.465179,353.219299 
	C154.518875,359.376831 151.993408,365.834534 148.567291,371.637238 
	C143.643860,379.975922 138.622742,388.260803 133.931900,396.741516 
	C131.522949,401.096710 132.631607,404.796692 136.551956,404.810883 
	C152.383240,404.868256 168.215164,404.759735 184.046295,404.833496 
	C187.496201,404.849579 188.665115,403.425995 188.771774,400.058777 
	C189.014130,392.406372 189.626190,384.766174 190.039963,377.118469 
	C190.358536,371.230255 191.903610,365.285889 194.486099,360.421753 
	C197.106003,355.487183 197.681625,350.845398 197.782135,345.719208 
	C197.886627,340.389160 198.627747,334.998962 198.064926,329.744904 
	C197.138931,321.100342 198.387802,312.173096 194.310196,303.867706 
	C191.652130,298.453705 194.979080,293.942963 200.382645,294.771210 
	C204.967270,295.473938 204.636490,299.241302 205.110687,302.437744 
	C205.588120,305.656036 204.282166,309.205780 206.778763,312.036926 
	C208.796982,314.325562 209.301819,317.026642 209.300491,319.929871 
	C209.295639,330.414703 210.234543,341.008972 209.024216,351.352112 
	C207.919479,360.792908 212.119781,368.684814 215.048035,376.475525 
	C218.101166,384.598419 221.133331,392.491364 222.056610,401.089172 
	C222.358795,403.903290 223.527908,404.832428 226.165939,404.786591 
	C230.663696,404.708466 235.170029,404.662109 239.661621,404.857941 
	C242.576248,404.984924 245.880280,405.770935 246.015869,409.237061 
	C246.415588,419.455170 247.373154,429.766205 245.782715,439.884583 
	C245.168243,443.793884 245.066162,449.666016 239.185486,450.367035 
	C235.296631,450.830627 231.287537,451.129089 227.243744,450.580414 
	C224.466217,450.203552 220.731339,448.763458 218.828903,451.498627 
	C217.064758,454.034973 220.764099,455.618988 221.780563,457.759125 
	C226.949661,468.642548 232.610458,479.156097 241.859253,487.334747 
	C244.385849,489.569031 243.687698,492.909851 242.210190,495.682159 
	C241.299301,497.391357 239.546249,497.694946 237.881577,496.687225 
	C231.503189,492.825897 225.998398,488.231628 222.528580,481.281158 
	C219.632294,475.479492 215.380142,470.381897 213.603989,463.957855 
	C213.225098,462.587494 212.147507,461.358612 210.053253,461.308136 
	C208.698593,464.108368 210.026459,467.851776 207.808090,470.237335 
	C205.251144,472.987030 205.251129,476.207428 204.956329,479.522186 
	C204.633133,483.156311 204.709564,486.989563 203.524048,490.352570 
	C200.015106,500.306458 196.396179,510.176117 196.394424,520.921021 
	C196.389511,550.917175 196.396286,580.913330 196.405655,610.909485 
	C196.406387,613.258911 196.332626,615.854004 197.772720,617.667847 
	C200.472260,621.067810 200.543304,625.017456 201.176727,628.951233 
	C202.458328,636.910461 206.290665,644.389038 205.670059,652.728088 
	C205.627411,653.301086 206.129593,653.976257 206.510620,654.509399 
	C209.832291,659.157654 210.564209,664.899719 212.723038,670.029968 
	C215.506744,676.645386 218.606750,683.267883 220.623093,690.160767 
	C222.382614,696.175720 226.640991,701.279602 226.759995,707.827698 
	C226.804184,710.258606 227.779053,711.897400 230.548264,712.146667 
	C232.726288,712.342773 234.033508,713.766052 234.821014,715.840759 
	C237.395218,722.622498 240.567307,728.859741 248.530212,730.791931 
	C249.927216,731.130920 251.209808,732.135071 252.419067,733.006958 
	C254.076431,734.201965 255.632248,735.627075 254.851822,737.979675 
	C254.142166,740.118896 252.213730,740.171814 250.340958,740.362915 
	C248.093887,740.592224 245.650650,739.928589 243.422836,741.773621 
	C244.708588,745.504211 243.191757,749.208008 242.955154,752.981934 
	C242.484451,760.489685 246.810181,766.137634 249.955658,772.201294 
	C251.827515,775.809753 251.442184,778.457397 247.881165,778.964294 
	C244.361923,779.465271 241.464371,778.780396 240.042221,774.640320 
	C238.430069,769.947083 236.256287,765.371155 234.068588,760.969666 
	C231.428528,755.658020 230.675308,751.103577 234.160995,745.807678 
	C229.272324,742.007874 233.261215,736.242004 231.027618,731.474365 
	C231.806946,741.078430 228.088638,749.781372 226.623138,758.862244 
	C225.184723,767.775269 220.788498,776.070251 221.290009,785.370667 
	C221.345856,786.406677 220.545166,787.551575 219.971848,788.548218 
	C217.113358,793.517517 218.251862,798.688232 218.449677,804.006042 
	C221.825546,803.205505 224.547668,802.002441 227.266312,802.010376 
	C240.089630,802.047668 252.931747,801.195251 265.736023,802.397827 
	C273.902435,803.164917 275.246643,801.798157 273.603943,793.691833 
	C273.379089,792.582153 272.784790,791.534302 272.282501,790.496094 
	C268.410675,782.493103 269.265961,774.636475 271.963898,766.372131 
	C274.047852,759.988586 278.586578,754.392151 278.611511,747.408508 
	C278.745300,709.913025 278.722168,672.416931 278.851593,634.921448 
	C278.864594,631.169189 277.354858,629.964172 273.763000,630.083618 
	C267.269989,630.299622 260.766510,630.228821 254.267426,630.229614 
	C240.435486,630.231262 226.603516,630.207581 212.771591,630.181885 
	C209.189468,630.175171 206.014084,629.741272 206.014694,624.940491 
	C206.016006,614.324341 205.996445,603.706177 205.787277,593.092712 
	C205.663269,586.801392 207.778412,584.155884 214.130524,583.932129 
	C219.110046,583.756592 224.103424,583.812073 229.086594,583.932922 
	C245.073166,584.320374 261.081085,583.308716 277.051941,584.669739 
	C280.317871,584.948059 282.047302,583.668274 282.103455,580.172363 
	C282.183624,575.180908 282.454681,570.190796 282.727722,565.204773 
	C282.867157,562.658691 283.164337,559.618835 286.284271,559.443665 
	C289.530151,559.261414 289.838867,562.454224 290.266785,564.860535 
	C291.199615,570.106506 291.959259,575.383423 292.775208,580.649963 
	C293.100830,582.751831 293.645325,584.659424 296.315063,584.637756 
	C306.589081,584.554382 316.865570,584.565430 327.136322,584.330994 
	C343.285797,583.962524 359.437683,583.497620 375.569427,584.569092 
	C379.605072,584.837219 381.007721,583.480896 380.820099,579.560120 
	C380.636993,575.733765 380.677155,571.783997 382.946381,568.458313 
	C384.463379,566.235046 384.783173,563.889587 384.778381,561.354370 
	C384.737854,539.856750 384.721802,518.359070 384.655762,496.861603 
	C384.651794,495.563019 384.668427,494.020386 384.022888,493.006989 
	C379.491974,485.894287 379.233337,477.391235 376.382874,469.716003 
	C374.591034,464.891144 372.687256,460.151398 369.893158,455.986053 
	C367.665833,452.665649 367.448578,450.245728 369.609497,446.987823 
	C374.058533,440.280273 373.167419,432.566254 370.672882,425.957581 
	C369.047180,421.650696 367.781433,417.664490 367.727600,413.183258 
	C367.618317,404.086273 367.631592,404.151855 358.257568,404.168945 
	C330.426727,404.219635 302.595825,404.230835 274.764923,404.218536 
	C267.265106,404.215210 265.806488,402.719971 265.752289,395.060242 
	C265.693298,386.727905 265.727783,378.394897 265.739838,370.062164 
	C265.754211,360.122437 268.136292,357.802155 278.223755,357.806915 
	C309.054688,357.821442 339.885620,357.840973 370.716522,357.807312 
	C372.607635,357.805237 375.747681,358.590576 375.990021,356.318146 
	C376.601624,350.583588 380.820435,346.014709 380.669250,340.154510 
	C380.538818,335.099335 381.664368,330.364044 383.389404,325.558197 
	C385.712280,319.086823 384.778625,312.222168 384.119049,305.205017 
	C379.942383,310.602051 375.425140,315.019897 368.243835,315.198730 
	C367.555176,315.215912 366.796387,315.994293 366.227692,316.573883 
	C364.592407,318.240448 362.529663,318.879547 360.332275,318.904785 
	C353.502869,318.983246 346.669800,319.033264 339.842712,318.884125 
	C337.132050,318.824921 334.116577,318.270691 334.084808,314.707764 
	C334.052551,311.096069 335.536499,308.300934 339.680847,307.643127 
	C343.170135,307.089294 346.644135,307.052338 351.045135,307.332153 
M411.453430,234.559631 
	C416.166931,233.962631 420.981506,235.333542 426.895294,233.831009 
	C422.975433,231.248322 423.670380,227.093811 419.939270,224.478104 
	C411.961609,218.885345 403.365021,215.008896 394.614044,210.924210 
	C386.822571,207.287415 378.235901,208.017456 370.554413,203.801819 
	C365.583862,201.073959 358.776245,200.237305 353.563904,197.864258 
	C342.773468,192.951614 333.195831,185.552689 328.997070,173.394928 
	C328.349335,171.519333 327.520020,169.667145 326.225861,169.249420 
	C307.306000,181.711761 288.865936,182.304230 270.295288,170.392258 
	C268.743256,172.692566 269.266785,174.751358 269.302765,176.684235 
	C269.371704,180.388123 268.470032,183.379486 265.332977,185.836899 
	C256.765289,192.548431 248.289383,199.254074 236.626862,199.397552 
	C234.455536,199.424255 232.516769,200.256897 230.593826,201.458221 
	C225.434097,204.681686 220.306564,207.370239 213.699158,207.659546 
	C207.561951,207.928268 201.189774,207.201706 195.047775,211.283432 
	C191.551483,213.606934 186.659744,215.446594 182.075027,216.909271 
	C177.082672,218.502014 173.457550,223.289124 171.572632,229.031830 
	C179.421326,229.924210 186.522247,229.011826 193.625580,228.972992 
	C218.928040,228.834702 244.233734,229.143097 269.537170,229.389191 
	C282.215363,229.512482 282.214508,229.616806 282.205322,242.190247 
	C282.204834,242.856506 282.191833,243.522797 282.193573,244.189041 
	C282.210541,250.607376 282.643036,251.069794 288.937744,251.069580 
	C316.088776,251.068680 343.239838,251.068832 370.390778,251.012497 
	C372.288544,251.008560 374.392517,251.645233 376.349365,249.778900 
	C372.465363,246.657745 377.160889,243.588776 376.299103,240.147430 
	C375.319519,236.235901 377.820740,234.111786 381.627838,234.141632 
	C391.280518,234.217224 400.945404,233.591110 411.453430,234.559631 
M346.679596,702.369995 
	C346.803345,701.716919 346.813354,701.015442 347.067657,700.417969 
	C351.530548,689.933899 358.384003,680.644775 360.705627,668.962524 
	C361.511688,664.906494 362.604492,659.935120 364.875427,656.088135 
	C368.966248,649.158264 367.533661,640.621155 371.973083,633.891541 
	C372.419281,633.215088 372.032867,631.989441 372.032867,630.992004 
	C371.506592,630.740295 371.070007,630.349487 370.632202,630.348206 
	C346.313934,630.275940 321.995514,630.243835 297.677216,630.182007 
	C295.102448,630.175415 294.121735,631.443054 294.187103,633.903503 
	C294.332977,639.393372 294.500305,644.885376 294.493500,650.376282 
	C294.460052,677.361938 294.365356,704.347656 294.314728,731.333313 
	C294.309418,734.175476 294.310364,737.200317 295.847656,739.590332 
	C298.222626,743.282654 298.766022,747.341858 299.153259,751.477600 
	C299.344299,753.517944 300.093933,755.262329 300.821014,757.133728 
	C303.105499,763.013611 308.315155,768.583618 303.398041,775.506836 
	C303.229614,775.744019 303.272400,776.157532 303.277710,776.487854 
	C303.390930,783.536560 302.333649,790.242004 299.451904,796.852051 
	C297.164276,802.099426 298.154083,803.087219 303.811707,802.655762 
	C319.450592,801.462891 335.097382,801.749084 350.748169,802.059814 
	C359.432495,802.232239 360.080566,801.521301 358.638275,792.839905 
	C358.476318,791.864990 358.241333,790.853149 357.797058,789.982544 
	C355.617584,785.711426 355.094086,781.110413 354.896545,776.424500 
	C354.826538,774.765015 354.925140,772.985779 353.806976,771.632263 
	C351.176422,768.447815 350.847443,764.673889 350.767090,760.805115 
	C350.728943,758.967346 350.897949,756.957275 349.636169,755.529419 
	C346.570557,752.060425 346.688843,747.924561 346.705627,743.741638 
	C346.739014,735.413086 347.533783,726.976562 346.443237,718.793945 
	C345.726288,713.414124 344.183777,708.383118 346.679596,702.369995 
M417.802551,436.544281 
	C417.822144,437.543152 417.981750,438.562500 417.839264,439.537689 
	C416.671478,447.529358 416.115295,455.543488 416.411224,463.629578 
	C416.524475,466.722778 417.204865,468.824280 420.854034,468.779785 
	C426.848022,468.706665 432.843872,468.742157 438.838562,468.785583 
	C442.368866,468.811157 444.830261,467.069916 445.237579,463.730652 
	C445.680420,460.100006 447.899567,457.735443 449.862823,455.105530 
	C452.523773,451.541016 456.362366,451.322418 458.902802,454.872131 
	C461.003723,457.807800 463.734375,460.346588 464.700439,464.088593 
	C465.626434,467.675354 468.321991,468.869446 471.931000,468.854431 
	C493.081604,468.766418 514.232788,468.732971 535.383423,468.797791 
	C539.736877,468.811127 541.181213,467.062744 540.956482,462.715973 
	C540.548157,454.817535 540.472168,446.887360 540.649536,438.979218 
	C540.740112,434.937988 539.097961,433.643982 535.352905,433.724579 
	C497.794373,434.532867 460.228088,432.935425 422.670227,434.071106 
	C420.933380,434.123627 418.876801,433.479675 417.802551,436.544281 
M293.335205,103.486824 
	C292.544312,104.528114 290.518738,105.307602 290.966156,106.490967 
	C293.499115,113.190292 287.765381,112.571991 284.564819,113.595100 
	C278.508545,115.531067 273.948242,113.959679 271.636841,109.258720 
	C270.407898,106.759285 269.110535,105.478729 266.191528,105.094200 
	C262.239471,104.573563 261.623474,101.785568 264.595154,98.856270 
	C265.705444,97.761810 266.738312,96.922722 266.491547,95.124176 
	C265.286285,86.338188 266.075470,77.501900 265.894714,68.688774 
	C265.864105,67.195763 266.672455,65.387764 264.931549,64.216858 
	C259.267639,68.180359 256.137177,73.807106 254.830902,80.213181 
	C253.193481,88.243233 251.090164,96.351631 255.444656,104.441902 
	C257.027466,107.382607 256.690155,110.718552 253.936005,113.623825 
	C249.917099,117.863258 251.820663,125.731674 257.408844,127.622345 
	C261.258820,128.924896 263.127930,131.257599 263.877594,135.004074 
	C265.463287,142.928665 268.579010,150.202072 273.572021,156.589127 
	C279.065247,163.616074 286.184235,167.953323 295.105896,169.099731 
	C298.042755,169.477127 301.171204,170.591110 303.886505,168.851562 
	C307.915802,166.270187 312.549316,165.116470 316.767273,162.852432 
	C326.631653,157.557617 329.397003,147.858337 333.582703,139.042969 
	C334.755432,136.573120 335.163513,133.981445 337.355774,131.837433 
	C342.490845,126.815369 348.194977,122.098335 346.928436,113.387398 
	C346.479431,110.299278 344.761139,108.352646 343.593903,105.881073 
	C340.627289,99.599075 339.086761,99.095421 335.577362,105.019203 
	C332.597290,110.049438 329.956573,113.419403 323.538330,115.008720 
	C318.189636,116.333191 314.387695,114.746429 310.370209,113.087227 
	C306.995026,111.693298 309.826355,108.157845 309.810913,105.584686 
	C307.034607,105.081627 304.807495,104.330864 302.764709,102.635674 
	C299.905334,100.262848 296.702606,100.133789 293.335205,103.486824 
M146.775223,484.281311 
	C150.230011,480.733551 152.946808,476.695282 155.409409,472.386139 
	C158.510925,466.958984 162.023560,461.757935 165.538528,456.581360 
	C166.584915,455.040283 168.199905,453.678284 167.108597,451.775391 
	C166.042770,449.916962 163.879379,450.268524 162.090714,450.451569 
	C152.784973,451.403839 143.456589,451.087280 134.135849,451.007904 
	C128.968750,450.963898 123.486458,451.633759 120.356201,446.152588 
	C117.026115,450.277039 116.582916,454.942749 115.115776,459.279449 
	C113.343491,464.518097 111.581413,469.772003 109.825333,475.031677 
	C107.749001,481.250458 105.017937,487.255280 102.472672,493.311646 
	C99.232910,501.020599 96.224243,508.832977 91.306931,515.735840 
	C89.396820,518.417236 88.356277,521.765869 84.934425,523.111938 
	C80.316635,524.928528 77.435837,528.657410 73.780022,532.760498 
	C88.241699,532.760498 101.866150,532.849365 115.487907,532.697144 
	C118.836357,532.659790 120.492401,530.189941 120.619957,527.004456 
	C120.731102,524.229065 121.916679,522.134888 123.249878,519.738525 
	C126.234558,514.373840 130.227554,509.719208 133.251938,504.443909 
	C137.175934,497.599487 140.793365,490.586761 146.775223,484.281311 
M390.500000,813.260925 
	C365.879944,813.256165 341.259888,813.240540 316.639832,813.254028 
	C310.190216,813.257568 310.039459,813.548645 310.033936,820.115967 
	C310.028351,826.773804 310.047089,833.446228 309.607635,840.082642 
	C309.404236,843.153870 310.589325,843.968201 313.186005,844.007385 
	C318.347717,844.085266 323.549835,843.800781 328.660156,844.356506 
	C334.430084,844.984131 338.666718,843.730225 341.253815,838.077942 
	C342.440735,835.484802 343.742279,832.417297 347.702301,832.858459 
	C351.582062,833.290649 352.957001,836.074829 353.740387,839.262512 
	C354.586548,842.705566 356.657379,844.354492 360.124603,844.302429 
	C363.773041,844.247742 367.420471,844.042786 371.068329,844.042419 
	C385.382477,844.040894 399.697174,844.036926 414.010437,844.166199 
	C417.712250,844.199646 418.975098,842.630859 418.889282,839.046753 
	C418.721893,832.055359 418.696045,825.052185 418.909241,818.063049 
	C419.033569,813.987366 417.215881,812.921143 413.483429,813.044312 
	C406.161194,813.286133 398.828430,813.209229 390.500000,813.260925 
M324.430847,286.328705 
	C329.032745,289.105774 333.902588,286.530701 338.637726,287.019226 
	C346.195068,287.798950 353.786621,288.245483 361.362793,288.844696 
	C370.513824,289.568451 379.634857,287.807648 388.740509,288.373352 
	C392.618347,288.614288 393.560150,287.120300 393.595184,284.039856 
	C393.667145,277.714905 393.449066,271.383728 393.643341,265.064117 
	C393.778442,260.670959 392.349182,258.992462 387.630585,259.089630 
	C372.653625,259.397980 357.666534,259.219696 342.683380,259.224518 
	C323.205200,259.230804 303.724640,259.398010 284.250397,259.123688 
	C279.136749,259.051636 277.389984,260.986511 277.449829,265.714203 
	C277.512817,270.692230 278.059601,275.642639 277.529053,280.662354 
	C276.949799,286.142944 278.686340,287.857605 284.418854,287.811829 
	C289.732361,287.769440 295.042358,287.271820 300.353668,286.970856 
	C304.427887,286.740021 307.933411,285.953217 310.687012,282.163757 
	C313.814087,277.860321 317.097656,278.268616 320.379089,282.349548 
	C321.409027,283.630432 322.642670,284.747528 324.430847,286.328705 
M335.929840,924.378174 
	C333.442322,924.524353 330.952942,924.820618 328.467651,924.789490 
	C319.829315,924.681458 311.192047,924.475159 302.555176,924.272217 
	C299.997192,924.212158 298.109039,925.047119 298.455078,927.922546 
	C299.355682,935.405518 298.574188,942.866150 298.461273,950.337524 
	C298.417084,953.260681 299.693726,954.953247 303.001587,954.881897 
	C309.660095,954.738159 316.323547,954.816956 322.984985,954.821655 
	C325.856934,954.823669 328.072205,953.579834 329.905975,951.432373 
	C334.041107,946.589783 335.353027,946.564026 340.475983,950.588379 
	C343.171082,952.705383 345.652832,954.929199 349.673584,954.874023 
	C366.826141,954.638855 383.984955,954.621887 401.138000,954.822754 
	C405.780914,954.877197 406.886993,952.810059 406.745209,948.785461 
	C406.534943,942.817078 406.360809,936.835999 406.515320,930.869263 
	C406.675964,924.664307 406.615448,924.359924 400.308411,924.351013 
	C379.158417,924.321106 358.008392,924.334167 335.929840,924.378174 
M498.166840,578.615784 
	C498.906738,576.764771 499.606903,574.896606 500.397095,573.067322 
	C501.284241,571.013489 502.453125,569.158325 504.982574,569.001831 
	C507.614441,568.839050 509.511841,570.212585 510.583130,572.462341 
	C512.219360,575.898499 514.711731,578.943787 515.295227,582.873718 
	C515.938354,587.204712 518.958496,588.708374 522.843262,588.444397 
	C530.836670,587.901306 538.828430,587.984924 546.817383,588.216187 
	C549.550720,588.295288 550.897034,587.561401 550.826416,584.663574 
	C550.756287,581.787170 552.041321,579.876831 555.128723,579.576904 
	C558.009583,579.297058 558.771912,577.488342 559.155212,574.834900 
	C560.068970,568.508667 558.373108,562.275452 558.940918,555.935120 
	C559.458984,550.150940 558.231262,549.228821 552.466431,549.202637 
	C540.139343,549.146729 527.811890,549.153687 515.484619,549.158813 
	C501.823578,549.164551 488.162567,549.200317 474.501526,549.215210 
	C471.915863,549.218018 469.116699,549.128479 469.168060,552.774170 
	C469.311462,562.956238 467.877197,573.031860 467.321136,583.164551 
	C467.139221,586.479431 468.808350,588.076660 472.141968,588.044739 
	C475.973053,588.008057 479.871552,587.607971 483.622498,588.163818 
	C491.100464,589.271912 495.137512,585.509583 498.166840,578.615784 
M439.500153,242.085052 
	C436.505432,242.093903 433.510742,242.104111 430.516022,242.111374 
	C416.538635,242.145233 402.561157,242.210739 388.583862,242.187103 
	C385.387451,242.181702 383.178833,242.585205 383.191498,246.729797 
	C383.204590,251.009109 385.688904,251.146988 388.733856,251.092194 
	C390.729858,251.056274 392.728180,251.142136 394.723907,251.100372 
	C399.234985,251.005951 401.543243,252.910004 401.286346,257.692841 
	C401.081329,261.509003 401.232330,265.345245 401.257751,269.172363 
	C401.268036,270.717194 401.462463,272.072845 403.351349,272.649689 
	C407.796692,274.007233 412.639130,272.367218 415.059937,268.510620 
	C418.795288,262.559906 422.441437,262.480408 426.173889,268.462860 
	C427.905396,271.238159 429.970917,272.891632 433.383606,272.875641 
	C452.685822,272.785217 471.988647,272.715454 491.290710,272.783752 
	C494.835297,272.796265 495.943115,271.346436 495.865997,268.002563 
	C495.712585,261.350067 495.563019,254.679474 495.891174,248.040039 
	C496.119110,243.428024 494.497314,241.984528 489.921570,242.041107 
	C473.450104,242.244873 456.974274,242.092743 439.500153,242.085052 
M170.749969,469.098206 
	C156.348145,489.321350 141.123169,509.031647 130.433334,532.116272 
	C132.024551,532.516479 132.648743,532.808655 133.274002,532.810974 
	C148.601425,532.868652 163.929016,532.879089 179.256424,532.940613 
	C182.689835,532.954407 183.760422,531.188049 183.959457,527.953735 
	C184.698822,515.938965 189.602829,504.674927 190.078888,492.474640 
	C190.281326,487.286346 192.980698,482.017822 193.302246,476.479034 
	C193.395020,474.881134 193.920334,473.075897 194.849014,471.805511 
	C197.057739,468.784180 197.962265,465.310272 197.506531,461.901337 
	C196.997086,458.090607 201.775665,453.771240 197.557312,450.945496 
	C194.361023,448.804474 189.748886,450.505890 185.769455,450.424744 
	C183.773376,450.384064 181.436935,450.303345 180.292252,452.181213 
	C177.052246,457.496552 174.084488,462.977814 170.749969,469.098206 
M324.125671,395.916077 
	C342.744476,396.160217 361.363586,396.384674 379.981812,396.666321 
	C383.412903,396.718201 384.773712,395.055206 384.756226,391.777161 
	C384.719788,384.948151 384.655304,378.115875 384.825012,371.290436 
	C384.934143,366.901550 382.718048,365.623016 378.882080,366.332611 
	C375.286896,366.997650 371.765961,368.044128 368.064026,368.088928 
	C346.766052,368.346619 325.468628,368.776306 304.170410,368.816223 
	C296.765839,368.830078 289.411804,367.004913 281.918488,368.095581 
	C279.312073,368.474915 276.267761,368.476471 276.484619,371.759216 
	C276.933563,378.554840 276.502289,385.319458 276.570496,392.095428 
	C276.600342,395.062714 278.588806,395.911011 281.279724,396.022980 
	C287.764435,396.292877 294.265259,395.631958 300.743622,396.484558 
	C302.967285,396.777252 304.527496,395.819244 305.096130,393.376312 
	C306.072327,389.182587 309.478729,388.155792 313.109314,387.987762 
	C316.692108,387.821930 319.701233,389.000580 320.744720,392.978180 
	C321.099213,394.329498 321.794342,395.428711 324.125671,395.916077 
M154.815369,540.494873 
	C151.157593,540.613831 147.487686,540.985535 143.844055,540.810364 
	C121.565292,539.739258 99.270889,541.106445 76.996193,540.282532 
	C72.698013,540.123535 70.878937,541.754211 71.078682,546.084290 
	C71.261627,550.050171 71.016663,553.966003 70.231705,557.954285 
	C68.850067,564.974304 71.425583,567.660217 78.685303,567.641907 
	C84.005402,567.628418 89.356102,566.998840 94.634697,567.404541 
	C98.694916,567.716492 101.648651,566.828918 104.329407,563.752991 
	C107.805237,559.764832 110.717010,559.930176 114.028862,564.291443 
	C115.416931,566.119263 116.845543,566.796143 119.027412,566.798767 
	C138.173630,566.821899 157.319916,566.891113 176.465775,567.011353 
	C179.343231,567.029419 180.784180,566.020203 180.751343,562.958740 
	C180.687073,556.966003 180.735428,550.970032 180.865082,544.978149 
	C180.937531,541.629944 179.643204,539.847961 176.147537,540.341309 
	C169.335251,541.302734 162.524521,540.605042 154.815369,540.494873 
M346.903351,622.517334 
	C349.263489,622.242920 351.565491,622.018616 352.202484,618.995667 
	C352.874756,615.805298 355.133026,614.107117 358.265381,614.020264 
	C361.281189,613.936523 363.348511,615.901917 364.221924,618.556335 
	C365.418823,622.193970 367.946777,622.757690 371.221619,622.674927 
	C381.362244,622.418701 391.505493,622.152710 401.648254,622.129272 
	C410.132385,622.109619 418.618988,622.369202 427.101044,622.620850 
	C430.455017,622.720337 431.963531,621.499634 431.853394,617.966980 
	C431.676910,612.307800 431.686951,606.633240 431.893555,600.975220 
	C432.026917,597.322876 430.651398,595.934570 426.973053,595.933411 
	C412.320892,595.928711 397.659729,595.766846 383.017059,595.819336 
	C363.530060,595.889221 344.041168,595.903198 324.554596,595.794739 
	C321.538727,595.778015 320.203705,596.428833 320.240326,599.528687 
	C320.313202,605.692688 320.322662,611.859558 320.217163,618.022827 
	C320.163208,621.176331 321.819000,621.969299 324.589508,622.010559 
	C331.747437,622.116882 338.903229,622.365967 346.903351,622.517334 
M128.346039,432.705109 
	C127.675797,437.653259 129.627304,439.522125 134.759705,439.149475 
	C140.887375,438.704559 147.071472,439.007538 153.230835,439.041473 
	C156.347931,439.058655 158.881454,438.627716 160.747772,435.422913 
	C162.915115,431.701233 167.634232,431.734192 169.622742,435.516296 
	C171.441055,438.974670 174.131912,439.749298 177.384491,439.690125 
	C195.453949,439.361328 213.541397,441.080688 231.605057,439.087616 
	C234.801468,438.734955 235.959534,437.684387 235.844742,434.487427 
	C235.659744,429.335022 235.550537,424.148834 235.934326,419.016205 
	C236.281723,414.370392 234.541992,412.742737 230.007156,412.964661 
	C217.059204,413.598328 204.115967,412.559021 191.148010,412.774353 
	C171.693604,413.097382 152.214142,413.588196 132.757507,412.444519 
	C129.666229,412.262787 128.139114,413.619080 128.224915,416.866089 
	C128.356827,421.857361 128.302750,426.853546 128.346039,432.705109 
M266.993073,263.910217 
	C269.423004,263.651520 269.837952,261.917847 269.794312,259.952393 
	C269.715973,256.425323 270.269073,253.568451 272.904602,250.506821 
	C275.251221,247.780884 274.649567,243.006714 273.244659,239.500397 
	C272.145294,236.756638 268.781830,238.037964 266.425842,238.026108 
	C233.141998,237.858444 199.853760,238.502151 166.575623,237.481216 
	C163.570648,237.389038 162.270523,238.393082 162.307571,241.421814 
	C162.384949,247.745438 162.409897,254.072052 162.297897,260.394623 
	C162.244659,263.398651 163.279221,264.469116 166.426102,264.313141 
	C173.070389,263.983826 179.735916,263.990295 186.391830,264.026550 
	C189.776184,264.044983 192.190903,263.315247 194.158829,260.002167 
	C196.891922,255.400818 202.453537,255.038300 204.043686,259.152039 
	C205.763733,263.601868 208.823990,264.049683 212.666550,264.040771 
	C230.475891,263.999603 248.285370,264.007874 266.993073,263.910217 
M292.398987,595.358582 
	C283.730072,594.609436 275.125183,596.152039 266.460632,596.033081 
	C250.145416,595.809021 233.825348,595.952942 217.509109,595.775452 
	C214.474899,595.742493 213.252014,596.692688 213.299820,599.730042 
	C213.396637,605.879517 213.384995,612.032898 213.279846,618.182312 
	C213.231613,621.002686 214.128265,622.657837 217.204117,622.638000 
	C224.696228,622.589783 232.189423,622.644653 239.680527,622.539490 
	C242.587494,622.498718 244.684570,621.487366 245.083984,617.994385 
	C245.432693,614.944885 248.115814,614.321350 250.717850,614.094421 
	C253.428757,613.858032 255.484924,615.146545 255.908524,617.732422 
	C256.593811,621.915771 259.389771,622.618164 262.778900,622.623413 
	C277.762451,622.646362 292.746185,622.592529 307.729584,622.650696 
	C311.139465,622.663940 312.535370,621.166565 312.476990,617.808228 
	C312.367462,611.509277 312.335632,605.206116 312.442230,598.907593 
	C312.494720,595.805054 310.649658,595.001099 308.280914,595.441650 
	C303.270508,596.373352 298.329132,595.134521 292.398987,595.358582 
M461.188782,537.184448 
	C460.827484,540.581726 461.964874,541.892334 465.716797,541.585510 
	C471.159424,541.140503 476.663910,541.444641 482.141998,541.441528 
	C491.678162,541.436157 501.214355,541.440063 511.453064,541.440063 
	C509.199280,539.234619 507.970551,537.350342 506.128906,535.849854 
	C498.533447,529.661560 492.366852,522.134827 488.161957,513.330505 
	C483.301392,503.153381 479.525299,492.472809 475.165588,482.068573 
	C472.798340,476.419128 469.590454,476.161499 465.277618,476.538696 
	C457.113190,477.252838 448.989502,477.061951 440.834076,476.516449 
	C437.433167,476.288940 433.925751,475.867493 429.831909,477.373230 
	C432.349487,481.722565 434.805786,485.714661 437.016388,489.838470 
	C441.355804,497.933472 449.615082,502.935181 453.643097,511.305145 
	C457.471497,519.260193 462.693329,526.729553 461.188782,537.184448 
M332.460754,900.794739 
	C332.838715,900.068420 333.537720,899.344360 333.542755,898.615540 
	C333.576782,893.705872 335.542053,889.393860 336.918091,884.817749 
	C338.345581,880.070557 341.733887,876.103760 342.003510,871.023071 
	C342.199066,867.338928 342.698120,863.922729 345.539764,860.981812 
	C347.146576,859.318909 348.028259,856.713867 347.354340,853.896545 
	C346.720520,853.717285 346.073273,853.318298 345.496735,853.402710 
	C331.444214,855.459473 317.368286,855.879639 303.248688,854.169495 
	C300.153473,853.794678 299.139648,855.417480 299.145905,858.294861 
	C299.185394,876.423096 299.190216,894.551514 299.132660,912.679749 
	C299.123291,915.632935 300.301666,916.896912 303.281403,916.849182 
	C309.433472,916.750732 315.589569,916.738892 321.741089,916.851196 
	C324.267487,916.897278 325.371948,915.565613 326.793518,913.676086 
	C329.600372,909.945190 328.747833,904.840881 332.460754,900.794739 
M290.408112,844.818604 
	C291.407990,844.810791 292.420959,844.694763 293.405579,844.813477 
	C298.379547,845.413086 300.315613,843.455017 299.918671,838.303589 
	C299.484619,832.669678 299.777710,826.978088 299.789246,821.311768 
	C299.806702,812.727905 299.544403,812.823975 290.984528,812.068909 
	C282.111603,811.286255 273.432861,813.140686 264.646271,813.141724 
	C252.314621,813.143127 239.981491,813.156067 227.652191,812.960938 
	C223.651703,812.897583 221.868835,814.179321 222.031769,818.411865 
	C222.313644,825.734131 222.290604,833.071289 222.248611,840.401367 
	C222.230331,843.592590 223.499557,844.887878 226.734650,844.793152 
	C233.063126,844.607910 239.399307,844.705383 245.731323,844.615906 
	C252.629700,844.518372 254.719559,842.958618 256.953857,836.386658 
	C258.088531,833.049133 260.140717,831.429810 263.800964,832.480164 
	C266.673309,833.304382 267.621490,835.610046 268.038727,838.127991 
	C268.842255,842.976318 271.857880,844.821411 276.438690,844.812927 
	C280.769958,844.804932 285.101227,844.802185 290.408112,844.818604 
M275.971619,73.386673 
	C274.407990,77.806129 276.712250,82.260727 275.809479,86.718887 
	C275.011169,90.660965 276.860687,92.633110 280.865875,92.869034 
	C286.739471,93.215027 292.499359,92.245789 298.212433,91.239845 
	C301.774231,90.612686 304.366760,88.857803 306.397400,85.022812 
	C309.969635,78.276451 313.956757,76.374458 319.017151,84.365395 
	C319.373260,84.927742 319.781738,85.469032 320.053253,86.070915 
	C322.178589,90.781525 326.160065,91.986076 330.785156,91.414238 
	C334.451050,90.960999 338.003784,90.781822 341.683472,91.475548 
	C345.213593,92.141075 347.395660,90.898094 347.176697,86.631149 
	C346.880219,80.854294 347.019318,75.054405 346.996735,69.264305 
	C346.957184,59.126125 346.965149,59.127544 337.047516,58.703041 
	C336.549805,58.681740 336.055054,58.553577 335.558441,58.550259 
	C316.752747,58.424511 297.946960,58.314499 279.141327,58.184170 
	C274.921295,58.154926 273.458679,60.355099 274.197021,64.268959 
	C274.719208,67.037041 275.392731,69.776581 275.971619,73.386673 
M268.052917,852.412842 
	C266.397034,852.530396 264.742615,852.718506 263.084991,852.753906 
	C252.979355,852.969788 243.050461,856.126282 232.812759,854.380371 
	C226.424469,853.290955 224.438675,855.956848 226.789917,862.138062 
	C227.137039,863.050659 227.868881,863.809204 228.306107,864.696533 
	C230.484970,869.118652 233.542877,873.367676 234.523361,878.048035 
	C235.527878,882.843201 238.013321,886.705139 240.409561,890.430176 
	C244.403580,896.639160 248.157135,902.621643 248.211777,910.313599 
	C248.242630,914.654358 250.445755,917.140198 255.101593,916.896362 
	C256.760193,916.809509 258.427002,916.879028 260.090057,916.878784 
	C273.904510,916.876343 271.948120,917.693665 271.676392,905.154724 
	C271.344299,889.831543 274.591095,874.698059 273.745667,859.355774 
	C273.549805,855.801270 272.821167,853.117737 268.052917,852.412842 
M282.653534,924.238220 
	C280.012573,924.473816 277.391632,924.551880 274.717560,924.500549 
	C261.233459,924.241577 247.742859,924.333374 234.254883,924.249939 
	C231.241653,924.231323 230.152130,925.671204 230.177658,928.567688 
	C230.240784,935.726746 230.261581,942.889893 230.083786,950.045959 
	C229.991791,953.748962 231.466690,955.048950 235.133209,954.900635 
	C240.953552,954.665161 246.797653,954.638733 252.616959,954.879822 
	C257.007538,955.061707 260.228668,953.652710 262.928009,950.114014 
	C265.998749,946.088318 269.233276,946.298889 272.757690,950.176392 
	C273.875031,951.405701 274.992889,952.705566 276.341461,953.639771 
	C279.662354,955.940308 283.450653,955.137390 286.944458,954.394775 
	C289.071442,953.942627 288.633026,951.434692 288.573578,949.633789 
	C288.360992,943.196289 287.671539,936.755371 288.690826,930.329041 
	C289.338745,926.243958 288.201813,923.734314 282.653534,924.238220 
M285.860474,855.351624 
	C283.667969,856.546021 283.233551,858.659668 283.089508,860.854614 
	C281.957611,878.102600 281.863556,895.368164 282.165955,912.643860 
	C282.216217,915.515198 283.166351,916.931946 286.216858,916.925354 
	C289.183838,916.919006 291.109436,916.062561 290.967712,912.731689 
	C290.876068,910.577393 291.275513,908.184448 290.474945,906.319092 
	C288.112732,900.814941 289.476562,895.144653 289.406281,889.616333 
	C289.265381,878.535767 286.888855,867.616577 287.362396,856.516724 
	C287.377960,856.151611 286.791901,855.760742 285.860474,855.351624 
M287.182526,797.896606 
	C289.320801,792.733032 291.161591,787.392212 293.531525,782.392639 
	C297.899658,773.177612 291.394684,766.622742 289.007935,759.047424 
	C288.906219,758.724609 287.889587,758.690125 286.978088,758.429504 
	C286.337524,761.214294 286.334045,764.083679 285.073090,766.206116 
	C280.193909,774.419189 280.886902,783.122986 282.351318,791.864380 
	C282.796082,794.519165 284.093475,797.222656 287.182526,797.896606 
M302.279785,971.896729 
	C303.123077,970.274170 304.001282,968.668640 304.800079,967.024475 
	C305.633362,965.309204 307.184631,963.967590 308.724701,965.104004 
	C311.983490,967.508728 316.867218,968.874878 316.047302,974.591919 
	C315.865723,975.858032 316.115906,977.289062 316.543823,978.512451 
	C317.032684,979.910034 318.404480,980.420105 319.817810,980.256226 
	C321.695801,980.038513 321.655090,978.595093 321.385620,977.223450 
	C320.930847,974.908691 320.775177,972.590698 321.240112,970.278076 
	C321.664215,968.168457 321.911194,965.576904 324.551819,965.270752 
	C326.975403,964.989807 327.744202,967.201050 328.391113,969.159851 
	C329.208618,971.635254 330.592529,973.031494 333.670776,971.823120 
	C332.852570,969.726257 331.771454,967.967346 331.525085,966.098389 
	C331.105133,962.912659 329.149689,962.279358 326.598602,962.570374 
	C318.954834,963.442505 311.292542,962.793640 303.641571,962.984131 
	C293.771088,963.229919 293.768799,963.139526 294.291901,973.283081 
	C294.545807,978.207031 296.390533,979.724365 301.681488,979.247375 
	C301.273407,977.003296 300.390289,974.716003 302.279785,971.896729 
M269.064362,963.360962 
	C264.120728,968.046265 266.128693,974.408936 264.281189,980.119446 
	C269.130493,981.177185 272.779266,981.438416 276.394043,978.072693 
	C280.145264,974.579895 278.009918,970.696777 278.378296,966.940125 
	C278.788818,962.754395 276.604462,962.085571 273.254272,962.564514 
	C272.104034,962.728943 270.960297,962.938965 269.064362,963.360962 
M202.258530,382.919434 
	C200.256393,389.830627 201.869308,397.134949 199.146057,403.833038 
	C207.833298,406.215607 209.525620,404.747833 210.029572,397.215363 
	C210.525345,389.805054 204.130722,384.540985 205.619034,376.614227 
	C202.786987,378.432159 203.141434,380.516968 202.258530,382.919434 
M93.466736,595.877319 
	C94.648148,602.036011 89.945267,607.166565 89.694252,613.603333 
	C93.293373,612.927063 94.905258,611.007385 95.358139,608.532288 
	C96.682304,601.295288 100.346207,594.488647 99.329102,586.802246 
	C99.143402,585.398804 100.060577,583.636902 97.784645,583.338318 
	C95.414284,583.027405 94.569176,584.471497 94.406479,586.597168 
	C94.192085,589.398376 93.912590,592.194580 93.466736,595.877319 
M83.698608,582.785339 
	C79.366119,592.894897 82.079422,603.352417 81.036858,614.306091 
	C83.263557,613.270752 83.555428,612.313049 83.557594,611.333679 
	C83.577736,602.220581 83.696976,593.126892 86.104523,584.229980 
	C86.421059,583.060242 85.531746,582.439941 83.698608,582.785339 
M53.084267,555.554871 
	C51.384575,557.727356 49.684879,559.899780 47.813663,562.291504 
	C56.544422,562.819275 63.773132,551.989563 60.596603,543.637695 
	C59.420826,548.281738 56.475376,551.649902 53.084267,555.554871 
M490.662567,601.575256 
	C490.809082,604.871704 490.964478,608.167847 491.099457,611.464783 
	C491.218018,614.359802 492.218109,616.678284 495.548615,618.544861 
	C496.050537,610.600098 496.084167,603.574524 491.947327,597.093079 
	C490.078583,598.158081 490.559296,599.560669 490.662567,601.575256 
M242.212357,963.614563 
	C242.682129,964.951233 243.151901,966.287964 243.861343,968.306641 
	C244.486084,967.095886 244.713287,966.506531 245.063004,966.002136 
	C247.280792,962.804016 250.264771,963.289124 252.968475,964.879822 
	C255.785217,966.536926 254.163376,968.522766 253.116455,970.777710 
	C251.763901,973.691101 250.468369,976.831604 251.246902,980.427490 
	C251.956192,974.420471 258.083038,970.324890 256.961853,963.355164 
	C251.941544,962.881653 247.269058,961.827881 242.212357,963.614563 
M482.796326,610.865723 
	C482.856354,605.953430 481.389343,601.508057 479.055573,597.296631 
	C477.896423,601.851501 477.624237,606.282471 479.153717,610.569763 
	C479.721222,612.160522 480.549561,614.885437 482.796326,610.865723 
M107.329559,592.165649 
	C107.329559,594.503418 107.329559,596.841187 107.329559,599.178955 
	C109.120995,593.104187 115.016235,587.977539 111.466240,580.914856 
	C112.040497,585.147034 109.209282,588.051147 107.329559,592.165649 
M505.039734,597.504761 
	C503.980194,597.082886 503.401093,597.660522 503.367706,598.580078 
	C503.211182,602.891235 502.938049,607.218018 504.054474,611.486755 
	C505.208466,607.046936 505.988586,602.603210 505.039734,597.504761 
z"/>
<path fill="#000000" opacity="1.000000" stroke="none" 
	d="
M206.341125,303.659912 
	C207.373932,298.586853 210.203857,297.308228 214.034851,299.768738 
	C214.174225,299.858246 214.321884,299.953522 214.423904,300.079865 
	C223.634323,311.483215 236.283020,305.447906 247.511948,306.551971 
	C249.093170,306.707397 250.022507,305.031494 251.325302,304.350494 
	C254.200745,302.847504 257.415192,302.218414 259.271851,305.427856 
	C260.983368,308.386444 259.771027,311.395355 256.795746,313.129242 
	C246.271667,319.262238 234.726791,321.352692 223.243439,317.838257 
	C216.362427,315.732330 208.599487,312.770599 206.341125,303.659912 
z"/>
<path fill="#000000" opacity="1.000000" stroke="none" 
	d="
M287.034668,420.475159 
	C286.569092,416.371277 286.230774,412.525665 289.983459,410.318207 
	C292.564911,408.799683 295.638550,407.767059 298.092773,410.690521 
	C301.001740,414.155640 305.713196,417.155090 302.107941,422.797089 
	C299.353729,427.107300 289.849182,425.879150 287.034668,420.475159 
z"/>
<path fill="#000000" opacity="1.000000" stroke="none" 
	d="
M426.807098,374.927856 
	C421.140411,380.119904 414.624451,378.486786 408.505798,377.870026 
	C405.584503,377.575531 404.903046,373.259796 407.543945,372.303467 
	C413.280212,370.226318 418.137238,365.299255 425.030853,366.643280 
	C427.166016,367.059601 429.542664,366.854218 430.416901,369.365631 
	C431.456970,372.353333 429.038513,373.426758 426.807098,374.927856 
z"/>
<path fill="#000000" opacity="1.000000" stroke="none" 
	d="
M165.829117,373.203064 
	C163.059219,370.272797 162.803223,367.082764 165.013382,364.482666 
	C167.191650,361.920105 169.910034,363.852905 172.217239,365.051544 
	C174.159897,366.060822 176.234543,366.465302 178.321136,366.979309 
	C181.604309,367.788086 183.680222,369.631592 182.596573,373.416687 
	C181.483536,377.304413 178.400696,377.806305 175.549271,376.357239 
	C172.517090,374.816315 169.256668,374.529266 165.829117,373.203064 
z"/>
<path fill="#000000" opacity="1.000000" stroke="none" 
	d="
M231.915955,301.931763 
	C230.102921,301.546814 228.488174,301.433716 227.302643,300.661621 
	C224.541443,298.863251 222.195724,296.273102 223.245544,292.826599 
	C224.382477,289.094086 228.191330,287.696198 231.543961,287.515625 
	C234.829819,287.338684 237.505569,289.695007 238.169754,293.213348 
	C238.838623,296.756470 238.066467,299.881104 234.222275,301.359863 
	C233.606003,301.596954 232.947983,301.725464 231.915955,301.931763 
z"/>
<path fill="#000000" opacity="1.000000" stroke="none" 
	d="
M329.676636,754.193848 
	C329.579681,750.859436 329.635895,748.113342 332.361572,746.170959 
	C334.412476,744.709473 333.495728,742.163513 334.151306,740.174255 
	C334.824097,738.132751 335.292053,735.607971 337.989075,735.643494 
	C340.745087,735.679749 341.277222,738.178162 341.484467,740.324646 
	C342.285522,748.622925 340.541656,756.779358 339.743225,764.974854 
	C339.443756,768.049072 336.806152,770.010742 333.668762,769.730591 
	C330.628357,769.459106 330.006714,766.623840 329.822388,764.102051 
	C329.593323,760.968079 329.710693,757.808777 329.676636,754.193848 
z"/>
<path fill="#000000" opacity="1.000000" stroke="none" 
	d="
M307.826630,741.206421 
	C313.287079,744.450989 315.968536,750.028320 320.384033,753.809326 
	C323.017822,756.064636 324.699707,758.144592 324.544373,761.626892 
	C324.463745,763.434265 323.956055,764.907654 322.270813,765.723999 
	C320.474091,766.594299 319.303680,765.607971 317.892212,764.484863 
	C313.407776,760.916504 309.112732,757.288696 305.879974,752.406311 
	C302.827545,747.796204 303.134766,743.806946 307.826630,741.206421 
z"/>
<path fill="#000000" opacity="1.000000" stroke="none" 
	d="
M326.997498,736.837402 
	C328.017120,738.916931 330.819885,740.360474 328.658691,742.693787 
	C326.422913,745.107666 323.281189,745.652100 320.434723,744.323730 
	C317.642273,743.020325 315.036163,741.311340 312.155914,740.082520 
	C309.860626,739.103333 309.397339,736.932861 310.117523,734.607971 
	C310.884033,732.133545 312.640564,732.006409 314.858124,732.511353 
	C318.979523,733.449951 323.524658,733.063843 326.997498,736.837402 
z"/>
<path fill="#000000" opacity="1.000000" stroke="none" 
	d="
M314.634277,127.769821 
	C315.840485,132.200211 314.022522,134.888779 310.211090,135.565796 
	C303.980835,136.672485 297.644806,136.829514 291.398651,135.353485 
	C289.327454,134.864059 287.540741,133.833054 287.703247,131.348572 
	C287.882996,128.600372 289.935303,127.933411 292.267456,127.707733 
	C295.390961,127.405479 298.573975,128.242249 302.230255,127.145432 
	C298.528687,122.215263 300.177979,116.627571 299.711700,111.307655 
	C299.499573,108.887695 300.322601,106.927467 303.146912,106.796265 
	C305.588776,106.682831 307.094269,108.234825 307.030518,110.447517 
	C306.831696,117.351105 310.656830,122.353760 314.634277,127.769821 
z"/>
<path fill="#000000" opacity="1.000000" stroke="none" 
	d="
M308.202515,155.624969 
	C304.116119,156.766724 300.301361,157.206024 296.483521,156.813354 
	C292.302643,156.383331 287.811279,156.066956 288.378418,149.868256 
	C288.491241,148.635162 287.243500,147.936249 286.441620,147.101883 
	C283.535767,144.078445 283.984650,141.775253 288.229462,141.165863 
	C295.792999,140.080063 303.506042,140.080032 311.058167,141.258041 
	C315.448578,141.942871 315.947327,144.671051 312.580566,147.619186 
	C311.328430,148.715622 310.580658,149.667725 310.837860,151.380234 
	C311.118927,153.251495 310.112579,154.537399 308.202515,155.624969 
z"/>
</svg>